<?xml version="1.0" standalone="no"?>
<!DOCTYPE svg PUBLIC "-//W3C//DTD SVG 20010904//EN"
 "http://www.w3.org/TR/2001/REC-SVG-20010904/DTD/svg10.dtd">
<svg version="1.0" xmlns="http://www.w3.org/2000/svg"
 width="700.000000pt" height="700.000000pt" viewBox="0 0 700.000000 700.000000"
 preserveAspectRatio="xMidYMid meet">
<metadata>
Created by potrace 1.14, written by Peter Selinger 2001-2017
</metadata>
<g transform="translate(0.000000,700.000000) scale(0.100000,-0.100000)"
fill="#000000" stroke="none">
<path d="M3548 6873 c-204 -394 -243 -452 -532 -798 -244 -291 -586 -646 -820
-850 -38 -33 -76 -67 -85 -76 -39 -39 -271 -225 -420 -338 -91 -68 -174 -133
-185 -143 -12 -11 -64 -46 -116 -78 -200 -124 -234 -146 -275 -186 -23 -22
-50 -55 -60 -73 -17 -34 -33 -171 -20 -171 7 0 215 125 315 188 l44 28 32 -75
c17 -42 44 -105 61 -141 133 -283 236 -526 261 -610 6 -19 29 -84 53 -145 56
-147 104 -320 125 -455 3 -19 7 -37 9 -40 2 -3 6 -33 10 -65 3 -33 8 -67 10
-75 2 -8 7 -51 11 -95 3 -44 8 -87 9 -96 25 -131 25 -1110 1 -1259 -2 -14 -7
-54 -11 -90 -4 -36 -9 -74 -11 -85 -2 -11 -6 -39 -10 -63 -16 -116 -88 -365
-158 -546 -67 -173 -95 -262 -120 -377 -8 -37 20 -68 66 -73 47 -6 61 6 97 79
121 248 216 507 279 760 42 169 40 157 57 410 24 377 25 920 0 1230 -9 112
-15 180 -20 215 -2 19 -7 60 -10 90 -20 176 -105 487 -206 751 -57 149 -152
370 -181 419 -11 19 -40 82 -63 140 -72 177 -91 215 -126 255 -31 35 -32 39
-16 49 52 32 591 447 617 476 3 3 37 30 75 61 67 54 544 523 670 659 77 83
187 208 250 285 28 33 53 62 56 65 22 19 212 283 284 395 49 74 89 134 90 133
4 -5 83 -162 178 -353 248 -498 404 -701 853 -1105 28 -25 90 -81 139 -125
107 -96 216 -198 302 -282 77 -76 79 -89 21 -204 -24 -47 -51 -103 -60 -124
-9 -22 -35 -85 -58 -140 -119 -281 -208 -535 -254 -725 -40 -162 -94 -417
-106 -500 -6 -41 -13 -85 -15 -96 -2 -12 -6 -48 -10 -80 -3 -33 -8 -73 -10
-91 -3 -17 -7 -67 -10 -110 -33 -488 -38 -1033 -11 -1114 3 -8 7 -30 10 -49
14 -93 55 -237 131 -465 83 -249 141 -381 233 -530 17 -27 40 -66 51 -85 11
-19 56 -87 99 -150 66 -96 84 -116 112 -123 45 -11 97 -1 110 23 25 47 11 84
-85 214 -27 37 -50 73 -50 79 0 7 -25 53 -56 102 -84 137 -179 333 -209 435
-4 14 -35 109 -68 211 -89 272 -107 390 -106 719 1 237 18 719 29 815 6 53 15
116 20 146 2 13 11 66 20 117 9 52 27 149 41 215 14 67 27 133 30 147 18 104
41 193 79 305 59 175 123 356 135 380 5 11 24 58 42 105 39 101 172 375 186
384 5 3 77 -38 158 -92 195 -129 205 -134 304 -178 137 -60 174 -62 201 -13
25 47 -31 104 -239 241 -122 82 -303 209 -361 256 -340 272 -647 546 -906 807
-194 196 -360 440 -548 807 -30 58 -68 126 -85 150 -29 42 -59 110 -126 283
-31 80 -38 91 -87 128 l-36 27 -25 -47z"/>
<path d="M3414 5127 c-135 -113 -342 -314 -434 -422 -141 -164 -291 -382 -363
-528 -30 -60 -30 -175 0 -240 41 -90 131 -154 228 -164 l52 -6 -92 -126 c-128
-175 -192 -275 -274 -426 -98 -179 -159 -344 -176 -475 -3 -25 -8 -57 -11 -72
-8 -41 -8 -226 0 -288 14 -106 48 -216 101 -325 29 -60 63 -121 75 -135 12
-14 34 -43 48 -65 43 -67 100 -106 239 -161 130 -52 192 -85 199 -106 3 -10
-6 -58 -20 -106 -48 -163 -64 -289 -61 -482 2 -158 6 -209 20 -247 3 -8 22
-13 47 -13 54 0 93 33 108 90 6 22 10 88 9 147 -3 151 12 319 38 418 42 158
127 254 256 286 26 6 47 15 47 19 0 4 -9 19 -20 33 -11 14 -20 29 -20 34 -1
16 -48 43 -94 53 -26 5 -83 8 -129 5 -45 -4 -109 -3 -142 1 l-60 7 -100 101
c-118 118 -170 208 -209 357 -88 338 -22 727 181 1062 35 58 200 296 212 307
10 8 234 310 270 363 l33 48 -26 34 c-18 23 -38 36 -61 41 -69 13 -118 -6
-266 -103 -96 -62 -137 -77 -166 -64 -30 14 -30 50 -2 151 34 126 87 208 267
415 157 181 177 202 262 275 107 93 185 175 204 214 30 63 18 122 -33 163
l-27 21 -110 -91z"/>
<path d="M4163 5197 c-26 -12 -40 -45 -48 -116 -4 -30 -8 -61 -10 -70 -3 -16
-15 -120 -21 -176 -16 -158 -26 -236 -59 -475 -10 -72 -41 -219 -62 -289 -9
-31 -15 -57 -15 -58 1 -2 -15 -40 -34 -85 -155 -360 -205 -528 -220 -745 -3
-48 -7 -99 -10 -113 -5 -30 -5 -180 0 -230 15 -143 70 -321 168 -539 93 -206
113 -257 132 -333 27 -111 28 -120 31 -278 5 -234 -28 -395 -142 -699 -59
-158 -81 -233 -89 -301 -3 -25 -7 -55 -9 -66 -4 -18 4 -25 43 -42 l47 -21 23
22 c38 35 142 281 202 476 36 119 34 109 60 221 18 79 26 120 47 255 4 28 8
97 8 155 0 179 -28 308 -115 525 -33 84 -42 103 -110 250 -86 186 -114 308
-114 505 0 238 51 522 120 668 61 129 132 316 150 397 1 6 11 46 22 90 23 87
50 227 57 290 3 22 8 58 11 80 3 22 7 51 9 65 2 14 6 66 10 115 3 51 13 105
22 125 13 26 17 63 17 140 1 147 -15 214 -59 250 -22 18 -35 20 -62 7z"/>
</g>
</svg>
