<?xml version="1.0" encoding="iso-8859-1"?>
<!-- Generator: Adobe Illustrator 16.0.0, SVG Export Plug-In . SVG Version: 6.00 Build 0)  -->
<!DOCTYPE svg PUBLIC "-//W3C//DTD SVG 1.1//EN" "http://www.w3.org/Graphics/SVG/1.1/DTD/svg11.dtd">
<svg version="1.1" id="Capa_1" xmlns="http://www.w3.org/2000/svg" xmlns:xlink="http://www.w3.org/1999/xlink" x="0px" y="0px"
	 width="530px" height="530px" viewBox="0 0 530 530" style="enable-background:new 0 0 530 530;" xml:space="preserve">
<g>
	<path d="M396.9,333.9c-30.102,37.699-71.301,62.6-117.301,66.899c-5.5,0.7-11.1,0.8-14.6,0.8c-50.3,0-96-24.5-129-64.199
		c-40.5,24.8-71.9,65.199-71.9,101.3V530H465.9c0,0,0-46,0-91.4C466.099,401.1,438.5,358.4,396.9,333.9z M164.999,315.2
		c3.6,4.3,7.4,8.3,11.5,12.1c18.2,17.4,39.5,29.5,62.9,34.8c8.4,1.9,17.1,3.101,25.8,3.101c35.3,0,67.701-15.601,93-41.8
		c4.5-4.601,8.6-9.601,12.6-14.9c25.102-32.7,40.5-77,40.5-125.9C411.298,81.7,345.9,0,265.199,0c-80.7,0-146.1,81.6-146.1,182.5
		c0,47.9,14.9,91.4,39,123.9C160.299,309.5,162.599,312.4,164.999,315.2z M171.399,158.6c28.1,28.1,18.3-34.7,54.9-71.2
		c12.3-12.3,28.2-20,42.9-26c1.301,17.1,13,36.4,32.4,50.8c22.6,16.7,48.801,21.2,65.9,13.1c0,0,2.699-2.2,9.6-0.4
		c3.801,1,6.301,3.9,7.699,6.3c3.801,6.3,4.701,15.8,2.301,24.9c-3.5,13.8-12.6,22-19.9,23l-6,0.8l-1.6,5.8
		c-13.1,47.6-49.801,95.8-94.5,95.8c-44.7,0-81.4-48.3-94.5-95.8l-1.6-5.8l-6-0.8c-7.2-1-16.4-9.2-19.9-23
		c-2.3-9.3-1.4-18.6,2.3-24.9c1.4-2.3,3.8-5.4,7.8-6.3c0.4-0.1,1.1-0.2,1.6-0.2C156.899,137.6,162.299,149.5,171.399,158.6z"/>
</g>
<g>
</g>
<g>
</g>
<g>
</g>
<g>
</g>
<g>
</g>
<g>
</g>
<g>
</g>
<g>
</g>
<g>
</g>
<g>
</g>
<g>
</g>
<g>
</g>
<g>
</g>
<g>
</g>
<g>
</g>
</svg>
