<?xml version="1.0" encoding="iso-8859-1"?>
<!-- Generator: Adobe Illustrator 16.0.0, SVG Export Plug-In . SVG Version: 6.00 Build 0)  -->
<!DOCTYPE svg PUBLIC "-//W3C//DTD SVG 1.1//EN" "http://www.w3.org/Graphics/SVG/1.1/DTD/svg11.dtd">
<svg version="1.1" id="Capa_1" xmlns="http://www.w3.org/2000/svg" xmlns:xlink="http://www.w3.org/1999/xlink" x="0px" y="0px"
	 width="527.9px" height="527.9px" viewBox="0 0 527.9 527.9" style="enable-background:new 0 0 527.9 527.9;" xml:space="preserve"
	>
<g>
	<g>
		<path d="M158,111.6c0.7-0.9,1.3-1.7,2.1-2.6c1.7-1.6,3.4-3.1,5.3-4.9c3.8-3.6,8.2-7.7,13.4-11.2c1.3-0.9,2.7-1.9,4.1-2.9
			c0.7-0.4,1.3-1,2.1-1.5c0.7-0.4,1.3-0.9,2-1.5c3-1.7,6.2-3.4,9.4-5.2c2.6-1.6,5.5-2.8,8.3-4c4.1-1.8,8.5-3.6,13-5.4
			c0.3-0.1,0.8-0.2,1.1-0.3c7.5-2,15-4.8,23.2-5.6c8.4-1.7,17.1-1.8,25.9-2.4c0.1,0,0.199,0,0.3,0c8.601,0.6,17.101,0.7,25.5,2.4
			c1.601,0.1,3.101,0.4,4.7,0.8c1.199,0.2,2.6,0.6,3.801,0.8c3.199,0.8,6.398,1.7,9.5,2.6c2.1,0.7,4.299,1.2,6.398,1.8
			c7.4,3,14.701,5.5,20.9,9.2c0.1,0.1,0.301,0.1,0.4,0.2c3.199,1.8,6.4,3.5,9.4,5.2c2.799,2,5.6,3.9,8.199,5.8
			c2.701,1.8,5.201,3.7,7.4,5.6c2.1,1.9,4.1,3.7,5.9,5.5c0.6,0.4,0.9,0.9,1.5,1.3C366.5,93,356.9,80.7,343.6,70.8
			c-2.699-2-5.5-3.7-8.299-5.3c-5.6-4.4-11.4-8.2-17.701-11.4c0.201-1.6,0.301-3.1,0.301-4.8C317.9,22.1,290,0,255.5,0
			c-34.5,0-62.4,22.1-62.4,49.3c0,5.2,1,10.1,2.9,14.8C180.4,76,167.4,92.2,158,111.6z"/>
		<g>
			<path d="M144.7,151.6c-0.3,0.1-0.7,0.1-1,0.2c-20.3,5.2-30.9,29.8-24.3,56.2c4.5,18,16.2,32,30.2,36.8
				C166,298.6,208,354.2,264.8,354.2c56.799,0,98.901-55.8,115.2-109.4c14-4.8,25.801-18.8,30.201-36.8c6.6-26.4-4-51.1-24.301-56.2
				c-0.301-0.1-0.699-0.2-1.1-0.2c-2-10.5-5-20.4-8.701-29.6c-0.199-2.4-0.6-4.7-1.1-7.1c-0.9-0.6-1.699-1.1-2.699-1.8l0,0
				c-1.9-1-3.9-2.2-6-3.4c-2.801-1.6-5.9-3.4-9.201-5c-1.799-0.9-3.5-1.8-5.5-2.7c-2.699-1.2-5.5-2.6-8.5-4
				c-1.199-0.4-2.5-0.9-3.699-1.3c-1.9-0.7-3.699-1.5-5.699-2.1c-6.301-2.8-13.4-4-20.4-6.4c-1.201-0.2-2.6-0.6-3.801-0.8
				c-3.699-0.8-7.5-1.5-11.299-2c-2.4-0.4-4.701-0.9-7.201-1.1c-7.6-1.3-15.5-1.2-23.3-1.6c-2.8,0.1-5.5,0.2-8.3,0.3
				c-5,0.1-10.1,0.4-15,1.2c-7.7,0.7-15,2.6-22.3,3.9c-1.2,0.4-2.4,0.8-3.6,1.1c-5.8,1.7-11.6,3-16.8,5.3c-3.2,1.2-6.3,2.4-9.3,3.6
				c-2,1-3.9,1.8-5.8,2.8c-0.9,0.4-1.8,0.8-2.6,1.2c-5.6,2.5-10.3,5.3-14.6,7.6l0,0c-0.7,0.3-1.2,0.7-1.8,1
				c-1.5,0.8-2.9,1.7-4.3,2.4c-1.8,1.2-3.5,2.4-5,3.4c-1.6,1-2.9,1.9-4.1,2.7C150.3,129.2,147,140,144.7,151.6z M225.7,134
				c11.4-11.4,25.9-18.9,39.601-24.8c5.5,11.2,14.699,22.3,26.899,31.2c25.8,19,56.2,22.4,72.7,9.4c0.9,4,1.801,8.1,2.4,12.3
				l1.299,9l9-0.9c1.301-0.1,2.602-0.1,3.602,0.1c9.398,2.4,14.199,17.8,10.398,33c-3.6,14.6-13.1,23.1-20.6,24.1l-6.299,0.9
				l-1.602,6C349.4,284.4,311.4,335.1,264.8,335.1s-84.7-50.699-98.3-100.8l-1.7-6.2l-6.3-1c-7.5-1-17-9.6-20.6-24.1
				c-3.8-15.2,1.1-30.6,10.4-33c0.6-0.1,1.2-0.2,2-0.2c0.6,0,1,0,1.6,0.1l1.8,0.2c1.8,13.4,7.3,25.8,16.7,35.2
				C198.8,233.9,188.9,170.8,225.7,134z"/>
			<path d="M374.1,313.2c-12,20.3-25.799,37.399-44,46.8C292.4,379.3,264.4,394.9,264.4,394.9l-0.1-0.101V394.4l-0.4,0.199
				l-0.4-0.199v0.399l-0.1,0.101c0,0-28-15.7-65.7-34.9c-18.3-9.4-32-26.4-44-46.8C97.9,335.9,58.9,388,58.9,433.5
				c0,47.9,0,94.4,0,94.4h204.7h0.8H469c0,0,0-46.5,0-94.4C468.9,388,429.9,335.9,374.1,313.2z"/>
		</g>
	</g>
</g>
<g>
</g>
<g>
</g>
<g>
</g>
<g>
</g>
<g>
</g>
<g>
</g>
<g>
</g>
<g>
</g>
<g>
</g>
<g>
</g>
<g>
</g>
<g>
</g>
<g>
</g>
<g>
</g>
<g>
</g>
</svg>
