<?xml version="1.0" encoding="iso-8859-1"?>
<!-- Generator: Adobe Illustrator 16.0.0, SVG Export Plug-In . SVG Version: 6.00 Build 0)  -->
<!DOCTYPE svg PUBLIC "-//W3C//DTD SVG 1.1//EN" "http://www.w3.org/Graphics/SVG/1.1/DTD/svg11.dtd">
<svg version="1.1" id="Capa_1" xmlns="http://www.w3.org/2000/svg" xmlns:xlink="http://www.w3.org/1999/xlink" x="0px" y="0px"
	 width="530px" height="530px" viewBox="0 0 530 530" style="enable-background:new 0 0 530 530;" xml:space="preserve">
<g>
	<path d="M152.95,165.6c-0.3,0.1-0.7,0.1-1,0.2c-18.9,4.7-28.9,27.8-22.6,52.4c4.2,16.8,15.2,29.9,28.3,34.4
		c15.1,50.2,54.3,102.2,107.3,102.2c53,0,92.2-52,107.5-102.1c13.1-4.5,24-17.6,28.3-34.4c6.2-24.6-3.7-47.6-22.601-52.4
		c-0.3-0.1-0.699-0.1-1-0.2c-1.899-9.8-4.699-19-8.1-27.6c-1.2-15.9-12.2-34.3-30.3-47.7c-2.5-1.9-5.2-3.4-7.7-4.9
		c-5.7-4.5-11.9-8.5-18.4-11.7c1.4-4.9,2.2-10.2,2.2-15.6c0-32.1-26.1-58.2-58.2-58.2s-58.2,26.1-58.2,58.2c0,8.6,2,16.8,5.3,24.2
		C178.35,100,159.95,129.1,152.95,165.6z M383.35,213.9c-3.399,13.5-12.2,21.5-19.2,22.5l-5.8,0.8l-1.5,5.7
		c-12.8,46.7-48.399,94-91.7,94s-79-47.301-91.7-94l-1.5-5.7l-5.8-0.8c-7-1-15.8-9-19.2-22.5c-3.5-14.2,1-28.6,9.8-30.8
		c0.5-0.1,1.2-0.2,1.9-0.2c0.4,0,1,0,1.4,0.1l1.6,0.1c1.6,12.5,6.7,24,15.6,32.9c26.4,26.4,17.1-32.5,51.6-66.8
		c10.7-10.7,24.2-17.7,37-23.1c5.2,10.4,13.6,20.8,25.1,29.1c24.101,17.8,52.4,20.9,67.7,8.8c0.9,3.7,1.601,7.6,2.2,11.4l1.2,8.4
		l8.4-0.8c1.199-0.1,2.399-0.1,3.399,0.1C382.35,185.3,386.85,199.7,383.35,213.9z M369.15,326.7c-11.3,19.2-24.3,35.5-41.699,44.3
		c-35.7,18.2-62.2,33.1-62.2,33.1l-0.1-0.1v-0.3l-0.3,0.2l-0.3-0.2v0.3l-0.1,0.1c0,0-26.5-14.8-62.2-33.1
		c-17.3-8.9-30.3-25.1-41.7-44.3C107.75,348.1,70.85,397.6,70.85,440.6c0,45.4,0,89.4,0,89.4h193.8h0.8h193.7c0,0,0-44,0-89.4
		C458.85,397.6,422.05,348.4,369.15,326.7z"/>
</g>
<g>
</g>
<g>
</g>
<g>
</g>
<g>
</g>
<g>
</g>
<g>
</g>
<g>
</g>
<g>
</g>
<g>
</g>
<g>
</g>
<g>
</g>
<g>
</g>
<g>
</g>
<g>
</g>
<g>
</g>
</svg>
