<?xml version="1.0" encoding="iso-8859-1"?>
<!-- Generator: Adobe Illustrator 16.0.0, SVG Export Plug-In . SVG Version: 6.00 Build 0)  -->
<!DOCTYPE svg PUBLIC "-//W3C//DTD SVG 1.1//EN" "http://www.w3.org/Graphics/SVG/1.1/DTD/svg11.dtd">
<svg version="1.1" id="Capa_1" xmlns="http://www.w3.org/2000/svg" xmlns:xlink="http://www.w3.org/1999/xlink" x="0px" y="0px"
	 width="530px" height="530px" viewBox="0 0 530 530" style="enable-background:new 0 0 530 530;" xml:space="preserve">
<g>
	<g>
		<path d="M166.55,273.8c23.1,34.8,56.7,61.4,97.7,61.4c45.201,0,81.599-32.601,104.599-72.6c25-20.7,43-48.4,50.5-79.8
			c0.301-1,0.701-1.9,0.9-2.9c1.1-4.2,1.701-8.6,1.9-12.8c0.699-5.5,1-10.9,1-16.5c0-83.2-72.9-150.6-163-150.6
			c-0.9,0-1.8,0.1-2.7,0.1c-4.5-0.1-8.9,0.1-13.4,0.7c-82.5,7.5-146.8,71.7-146.8,149.8C97.15,201.6,124.65,246.5,166.55,273.8z
			 M321.25,290.2c-16.6,15.1-36,24.7-57.1,24.7c-19,0-36.6-7.801-52-20.301c-25.2-20.5-44.5-53.7-53.5-86.7l-1.9-6.5l-6.7-0.9
			c-8-1.1-18.3-10.3-22.2-25.6c-2.7-10.4-1.7-20.7,2.7-27.9c1.6-2.7,4.3-5.9,8.6-7c0.6-0.1,1.1-0.2,1.8-0.2
			c3.1,10.5,8.5,20,16.3,27.8c31.4,31.4,90.1,23.7,131-17.2c7.5-7.5,13.701-15.5,19-23.9c22.301,13.6,48.1,14,63.301-1.2
			c0.799-0.8,1.299-1.8,2.1-2.7c0.6,2.8,1.1,5.6,1.6,8.5l1.4,9.5l9.6-0.9c1.4-0.1,2.9-0.1,3.9,0.1c4.199,1.1,7,4.5,8.6,7
			c4.201,7.1,5.201,17.6,2.701,27.9c-3.9,15.4-14.201,24.5-22.201,25.6l-6.699,0.9l-1.801,6.5
			C361.15,238.6,343.85,269.5,321.25,290.2z"/>
		<path d="M380.951,303.8c-12.602,21.4-27.102,39.5-46.301,49.3c-39.7,20.301-69.2,36.801-69.2,36.801l-0.101-0.101V389.4
			l-0.399,0.199l-0.4-0.199v0.399l-0.1,0.101c0,0-29.5-16.5-69.2-36.801c-19.3-9.8-33.8-27.899-46.3-49.3
			c-58.8,23.9-99.8,78.8-99.8,126.8c0,50.5,0,99.4,0,99.4h215.4h0.799h215.5c0,0,0-48.9,0-99.4
			C480.65,382.6,439.75,327.7,380.951,303.8z"/>
	</g>
</g>
<g>
</g>
<g>
</g>
<g>
</g>
<g>
</g>
<g>
</g>
<g>
</g>
<g>
</g>
<g>
</g>
<g>
</g>
<g>
</g>
<g>
</g>
<g>
</g>
<g>
</g>
<g>
</g>
<g>
</g>
</svg>
