<?xml version="1.0" encoding="UTF-8" standalone="no"?>
<svg width="512" height="512" viewBox="0 0 512 512" version="1.1" id="SVGRoot" xmlns="http://www.w3.org/2000/svg"
   xmlns:svg="http://www.w3.org/2000/svg" xmlns:rdf="http://www.w3.org/1999/02/22-rdf-syntax-ns#"
   xmlns:cc="http://creativecommons.org/ns#" xmlns:dc="http://purl.org/dc/elements/1.1/">
   <defs id="defs10" />
   <metadata id="metadata13">
      <rdf:RDF>
         <cc:Work rdf:about="">
            <dc:format>image/svg+xml</dc:format>
            <dc:type rdf:resource="http://purl.org/dc/dcmitype/StillImage" />
         </cc:Work>
      </rdf:RDF>
   </metadata>
   <path style="fill:#000000;fill-opacity:1;stroke:#000000;stroke-width:7.78419;stroke-dasharray:none;stroke-opacity:1"
      d="m 125.72161,501.49258 c 2.18228,-16.21839 12.50379,-32.90808 16.13426,-49.87106 9.56775,-32.58384 7.43505,-67.09469 8.29337,-100.68786 -1.42389,-32.19277 -3.97265,-65.18815 -17.07492,-95.15016 -7.04429,-22.98498 -19.00978,-44.13397 -27.9809,-66.23234 8.02546,-8.26446 14.16824,22.12786 19.91525,29.61515 11.81484,25.18222 21.63479,51.67 26.72445,78.91462 5.95761,43.86807 4.82233,88.1501 1.67292,132.2138 -4.68747,24.71967 -13.47671,48.87206 -24.79916,71.40633 0.44044,0.9996 -3.89924,-0.19516 -2.88527,-0.20848 z m 253.24889,-1.17109 c -10.93354,-15.76704 -22.11033,-32.09945 -28.54334,-50.34631 -8.27928,-24.15155 -17.54005,-48.88847 -15.57325,-74.97918 1.0163,-34.35956 1.03597,-69.63944 9.86778,-103.30706 4.80178,-28.59932 16.69771,-55.57886 27.9797,-82.1091 9.89816,-18.41487 7.91987,-15.54596 -10.18248,-33.40333 C 336.53538,131.97927 306.97372,109.73522 290.06449,77.724963 279.4559,60.561533 272.45137,41.348705 261.983,24.107662 237.5552,68.499294 200.55799,104.07811 164.44893,138.97915 c -27.27873,22.16733 -54.74489,44.55261 -85.069004,62.36778 -0.07709,-11.91674 26.409404,-19.76439 36.101984,-30.39948 48.79484,-34.60413 91.33751,-77.510137 127.54542,-125.042975 8.06521,-10.827942 14.2567,-24.333588 19.7346,-34.410024 4.51062,2.822721 7.24196,22.367497 15.32227,30.838582 14.07652,28.697131 30.4901,57.176807 55.15998,78.119707 22.75619,22.24581 47.09187,43.15014 72.86862,61.80096 8.41008,4.35644 42.97427,28.55872 16.98453,16.51619 -13.13266,-4.77006 -26.627,-17.91594 -37.20348,-21.52945 -14.46419,24.14755 -23.11415,51.09413 -32.00214,77.65434 -5.3371,27.73213 -12.66065,55.21561 -11.75974,83.7705 -1.44943,30.40408 -4.23559,62.04782 7.61889,90.90468 5.01005,18.44398 12.73006,35.9758 23.47618,51.79617 -0.87576,4.62013 20.15239,22.82115 5.74346,18.95536 z M 280.058,465.63091 c 1.13732,-15.59293 11.8048,-32.94685 14.83989,-49.81465 5.19936,-21.96833 4.28606,-45.48958 -6.0707,-65.86352 -9.65562,-20.44304 -19.00387,-42.1989 -14.95019,-65.43794 0.11872,-20.94657 7.84124,-40.52992 16.5379,-59.17445 9.68604,-26.31691 10.10977,-54.79148 14.15523,-82.22455 1.20353,-23.19362 9.31466,10.5881 2.62601,18.78287 -1.85949,30.07968 -7.26284,60.4055 -21.61886,87.18934 -6.99605,26.69451 -11.60171,56.55991 1.07627,82.37962 10.15737,21.54099 20.99991,44.7318 16.20235,69.19352 -2.90234,22.37045 -10.46477,44.23397 -19.86424,64.61588 l -1.25295,1.13366 -1.68208,-0.77978 z m -61.42332,-11.5267 c -2.67013,-16.64461 -1.16063,-35.76392 4.35805,-52.37193 7.14455,-17.19288 -26.07941,-13.86929 -32.51772,-28.60924 -21.43924,-25.71207 -19.43368,-64.49842 -3.02803,-92.37407 9.89581,-19.7535 24.15051,-36.83807 37.00907,-54.64063 -16.66263,16.77963 -40.66394,-2.84922 -27.05597,-22.47875 14.76312,-26.80186 36.87674,-49.3144 60.4288,-68.30977 8.98536,8.01247 -19.6479,23.33713 -25.28906,33.44488 -13.09861,14.62358 -30.13804,30.80858 -29.41251,51.7297 8.01045,17.08817 30.83345,-16.80559 38.79001,-6.25945 -17.65258,26.09451 -41.60528,49.52631 -49.43551,81.05259 -6.8147,27.33516 -5.20501,61.99813 18.55179,80.7872 8.79423,13.39284 30.0275,0.73418 35.58298,9.55816 -19.47686,5.80244 -22.15809,26.72485 -22.94166,45.13709 -2.20688,5.0747 3.41083,24.33366 -5.04024,23.33422 z"
      id="path32" />
</svg>