<?xml version="1.0" encoding="UTF-8" standalone="no"?>
<svg
   xmlns:dc="http://purl.org/dc/elements/1.1/"
   xmlns:cc="http://creativecommons.org/ns#"
   xmlns:rdf="http://www.w3.org/1999/02/22-rdf-syntax-ns#"
   xmlns:svg="http://www.w3.org/2000/svg"
   xmlns="http://www.w3.org/2000/svg"
   xmlns:sodipodi="http://sodipodi.sourceforge.net/DTD/sodipodi-0.dtd"
   xmlns:inkscape="http://www.inkscape.org/namespaces/inkscape"
   width="468"
   height="60"
   viewBox="0 0 123.825 15.875"
   version="1.1"
   id="svg837"
   inkscape:version="1.0 (4035a4fb49, 2020-05-01)"
   sodipodi:docname="hebammenpraxis-document-logo.svg">
  <defs
     id="defs831" />
  <sodipodi:namedview
     id="base"
     pagecolor="#ffffff"
     bordercolor="#666666"
     borderopacity="1.0"
     inkscape:pageopacity="0.0"
     inkscape:pageshadow="2"
     inkscape:zoom="1.4"
     inkscape:cx="182.93025"
     inkscape:cy="199.11433"
     inkscape:document-units="mm"
     inkscape:current-layer="layer2"
     inkscape:document-rotation="0"
     showgrid="false"
     units="px" />
  <metadata
     id="metadata834">
    <rdf:RDF>
      <cc:Work
         rdf:about="">
        <dc:format>image/svg+xml</dc:format>
        <dc:type
           rdf:resource="http://purl.org/dc/dcmitype/StillImage" />
        <dc:title />
      </cc:Work>
    </rdf:RDF>
  </metadata>
  <g
     inkscape:label="Layer 1"
     inkscape:groupmode="layer"
     id="layer1" />
  <g
     inkscape:groupmode="layer"
     id="layer2"
     inkscape:label="Layer 2">
    <path
       id="path32"
       d="M 2.1649601,15.269726 C 2.2414402,14.78414 2.6031656,14.284442 2.7303994,13.776562 3.065708,12.800985 2.9909671,11.767714 3.0210469,10.761917 2.9711459,9.79805 2.8818225,8.8101516 2.4226416,7.9130745 2.1757689,7.2248931 1.7564283,6.5916819 1.4420279,5.930045 1.7232866,5.6826036 1.938566,6.5925649 2.1399742,6.8167373 c 0.4140611,0.7539681 0.7582095,1.5470256 0.9365811,2.3627433 0.2087902,1.3134314 0.169003,2.6392574 0.058629,3.9585474 -0.164276,0.740119 -0.4723023,1.463253 -0.8691081,2.137941 0.015434,0.02993 -0.1366516,-0.0058 -0.1011159,-0.0062 z m 8.8753229,-0.03506 C 10.657107,14.762588 10.265407,14.273587 10.039957,13.727267 9.7498022,13.004159 9.4252512,12.263522 9.4941782,11.482352 9.5297982,10.453611 9.5304862,9.3973141 9.8400032,8.389288 10.008286,7.5330132 10.425189,6.7252329 10.820575,5.930904 11.167465,5.3795534 11.098135,5.4654501 10.463723,4.9307913 9.5531072,4.2063145 8.5170942,3.5403167 7.9244947,2.581913 7.5527094,2.0680319 7.3072303,1.4927905 6.9403558,0.97658508 6.0842631,2.3056924 4.7876646,3.3709398 3.5221928,4.4158939 2.5661853,5.0795951 1.6036102,5.7498213 0.54087624,6.2832166 0.53817624,5.9264236 1.4664164,5.6914606 1.8061007,5.3730411 3.5161575,4.3369758 5.0071009,3.0523491 6.2760383,1.6291921 6.5586904,1.3049986 6.7756765,0.90063295 6.9676553,0.59893936 7.125733,0.68345336 7.2214556,1.2686336 7.5046366,1.5222619 7.9979605,2.381468 8.5731882,3.2341641 9.4377652,3.8612046 c 0.7975088,0.6660501 1.6503738,1.2919355 2.5537418,1.8503506 0.29474,0.1304345 1.50607,0.855063 0.595238,0.4945033 C 12.1265,6.0632406 11.653579,5.6696468 11.282917,5.561456 10.776007,6.2844459 10.472862,7.0912401 10.161375,7.8864657 9.9743322,8.7167797 9.7176712,9.5396484 9.7492452,10.394596 c -0.0508,0.910313 -0.148441,1.857743 0.2670108,2.721731 0.175581,0.552222 0.446135,1.077133 0.822742,1.550803 -0.03069,0.13833 0.706257,0.683277 0.201285,0.567534 z M 7.5738099,14.19601 C 7.6136665,13.72915 7.98752,13.209565 8.0938867,12.704535 8.2761025,12.046792 8.2440959,11.342553 7.8811337,10.732548 7.5427448,10.120473 7.2151273,9.4690921 7.357191,8.7733034 7.3612809,8.1461532 7.631995,7.5598177 7.9367757,7.0015916 8.2762317,6.2136501 8.291082,5.3611071 8.4328584,4.5397475 8.4750314,3.845319 8.7592982,4.8567606 8.5248922,5.102116 8.459722,6.0027166 8.2703589,6.9106868 7.7672406,7.7126085 c -0.2451835,0.7992464 -0.4065927,1.6934312 0.03772,2.4664855 0.355973,0.644949 0.7359581,1.339293 0.5678261,2.071689 -0.1017162,0.669782 -0.3667481,1.324387 -0.6961615,1.934631 l -0.043911,0.03395 -0.058951,-0.02335 z M 5.4211773,13.850895 C 5.327601,13.352547 5.3805045,12.780106 5.5739092,12.282853 5.8242953,11.768091 4.6599335,11.867599 4.4342981,11.426279 3.6829423,10.656446 3.7532285,9.4951636 4.3281786,8.660553 4.6749845,8.069123 5.1745539,7.5576027 5.6251926,7.0245855 5.0412353,7.5269763 4.2000904,6.9392782 4.6769932,6.3515602 5.194379,5.5491001 5.9693698,4.8750629 6.794771,4.3063321 7.1096715,4.5462286 6.1061946,5.0050573 5.9084954,5.3076885 5.4494435,5.7455251 4.8522813,6.2301125 4.8777087,6.856501 5.1584414,7.3681294 5.9582925,6.3533335 6.2371373,6.6690897 5.6184879,7.4503729 4.779045,8.1519326 4.5046277,9.0958451 4.2658012,9.914273 4.3222138,10.952099 5.1547911,11.514653 c 0.3082004,0.400989 1.0523398,0.02198 1.2470356,0.286177 -0.6825828,0.173728 -0.7765486,0.800155 -0.8040098,1.351427 -0.077347,0.15194 0.1195354,0.728562 -0.1766396,0.698638 z"
       style="fill:#000000;fill-opacity:1;stroke:#000000;stroke-width:0.0554351;stroke-dasharray:none;stroke-opacity:1" />
    <text
       id="text842"
       y="6.2744045"
       x="16.365295"
       style="font-style:normal;font-variant:normal;font-weight:bold;font-stretch:normal;font-size:7.9375px;line-height:0.95;font-family:'Open Sans';-inkscape-font-specification:'Open Sans Bold';text-align:start;letter-spacing:1.85208px;word-spacing:0px;text-anchor:start;stroke-width:0.264583;"
       xml:space="preserve"><tspan
         style="font-style:normal;font-variant:normal;font-weight:bold;font-stretch:normal;font-size:7.9375px;font-family:'Open Sans';-inkscape-font-specification:'Open Sans Bold';text-align:start;text-anchor:start;stroke-width:0.264583;"
         y="6.2744045"
         x="63.13813"
         id="tspan840"
         sodipodi:role="line">Hebammenpraxis</tspan><tspan
         id="tspan844"
         style="font-style:normal;font-variant:normal;font-weight:bold;font-stretch:normal;font-size:7.9375px;font-family:'Open Sans';-inkscape-font-specification:'Open Sans Bold';text-align:start;text-anchor:start;stroke-width:0.264583;"
         y="13.815029"
         x="64.064171"
         sodipodi:role="line">Moosburg</tspan></text>
  </g>
</svg>
