<svg xmlns:dc="http://purl.org/dc/elements/1.1/" xmlns:cc="http://creativecommons.org/ns#"
  xmlns:rdf="http://www.w3.org/1999/02/22-rdf-syntax-ns#" xmlns:svg="http://www.w3.org/2000/svg"
  xmlns="http://www.w3.org/2000/svg" version="1.1" id="svg8" viewBox="0.5 0.5 209 287.22">
  <defs id="defs2" />
  <metadata id="metadata5">
    <rdf:RDF>
      <cc:Work rdf:about="">
        <dc:format>image/svg+xml</dc:format>
        <dc:type rdf:resource="http://purl.org/dc/dcmitype/StillImage" />
        <dc:title />
      </cc:Work>
    </rdf:RDF>
  </metadata>
  <g id="layer1">
    <path style="fill:#000000;fill-opacity:1;stroke-width:0.185938"
      d="m 28.873027,287.36672 c -0.647085,-0.76748 -0.729307,-1.70841 -0.239713,-2.74335 0.251044,-0.53066 0.456446,-1.04984 0.456446,-1.15373 0,-0.10386 0.241659,-0.49301 0.536976,-0.86468 0.295371,-0.37165 0.592797,-0.97284 0.660894,-1.33602 0.06813,-0.36319 0.537716,-1.50656 1.043493,-2.5408 0.505777,-1.03427 0.919579,-2.02989 0.919579,-2.2125 0,-0.18264 0.203714,-0.71513 0.452649,-1.18336 0.248988,-0.46822 0.551579,-1.33031 0.672488,-1.9157 0.120906,-0.58543 0.273285,-1.10622 0.338591,-1.15737 0.150577,-0.11794 0.511097,-1.19747 0.683082,-2.04533 0.07257,-0.35794 0.246775,-0.81581 0.387132,-1.01751 0.140303,-0.20175 0.255155,-0.58912 0.255155,-0.86088 0,-0.27176 0.463717,-1.77146 1.030477,-3.33276 0.566704,-1.56125 1.120758,-3.26567 1.231179,-3.78757 0.110416,-0.52194 0.32805,-1.19804 0.483643,-1.50246 0.15554,-0.30441 0.387659,-0.97376 0.515787,-1.48753 0.128133,-0.51368 0.41507,-1.56153 0.637649,-2.32852 0.624211,-2.15117 2.044297,-8.21725 2.047984,-8.74843 0,-0.26078 0.09166,-0.56252 0.199708,-0.67055 0.111324,-0.11135 0.274604,-1.79855 0.377013,-3.89537 0.0993,-2.0345 0.26749,-4.41027 0.373693,-5.27952 0.10615,-0.86928 0.229436,-2.1662 0.273919,-2.88204 0.04428,-0.71588 0.167922,-2.30565 0.274287,-3.53286 0.106417,-1.22715 0.239448,-4.9506 0.295688,-8.27425 0.143723,-8.49633 0.176681,-9.57867 0.29774,-9.7746 0.20545,-0.33257 0.150222,-15.88489 -0.05645,-15.88489 -0.107148,0 -0.148525,-0.0749 -0.09189,-0.16668 0.127186,-0.2058 -0.306385,-7.64297 -0.445531,-7.64243 -0.05521,0 -0.07295,-0.52943 -0.03952,-1.17698 0.03374,-0.64753 -0.07047,-2.49743 -0.231118,-4.1109 -0.160606,-1.61344 -0.245511,-3.00885 -0.188588,-3.10091 0.05687,-0.092 -0.0063,-0.21019 -0.14078,-0.26246 -0.182315,-0.0711 -0.250044,-0.70044 -0.26728,-2.48331 -0.01677,-1.75386 -0.111893,-2.65435 -0.357457,-3.39 -0.183894,-0.55092 -0.317403,-1.30169 -0.296583,-1.66839 0.049,-0.86521 -0.450066,-3.94703 -0.721347,-4.45395 -0.115535,-0.21588 -0.237077,-0.89031 -0.270018,-1.49872 -0.0332,-0.60842 -0.14073,-1.20875 -0.239449,-1.33407 -0.09869,-0.12523 -0.230961,-0.80753 -0.293947,-1.51602 -0.06298,-0.70852 -0.21631,-1.35108 -0.340647,-1.42793 -0.139033,-0.086 -0.207664,-0.48641 -0.178306,-1.04017 0.03108,-0.58609 -0.08518,-1.21072 -0.333108,-1.78905 -0.209457,-0.48873 -0.460289,-1.38177 -0.557377,-1.98457 -0.09708,-0.60282 -0.265536,-1.2624 -0.374378,-1.46578 -0.108842,-0.20336 -0.197914,-0.5858 -0.197914,-0.84984 0,-0.61596 -1.379871,-4.42176 -2.894669,-7.98376 -0.650772,-1.53022 -1.277459,-3.24863 -1.392729,-3.81871 -0.277028,-1.3703 -1.160768,-3.88218 -1.645724,-4.6776 -0.21304,-0.34951 -0.387713,-0.89894 -0.388081,-1.22091 -3.7e-4,-0.32195 -0.366946,-1.32602 -0.814586,-2.23125 -0.44764,-0.90522 -1.378186,-3.06828 -2.067854,-4.80682 -0.689672,-1.73854 -1.536674,-3.72365 -1.88222,-4.41141 -0.345549,-0.68772 -0.628269,-1.41274 -0.628269,-1.61113 0,-0.19839 -0.324253,-0.97445 -0.720505,-1.72458 -0.396251,-0.75012 -0.782487,-1.65671 -0.858228,-2.01465 -0.150523,-0.71107 -3.116143,-6.55831 -3.630721,-7.15862 -0.17531,-0.20454 -0.372533,-0.65772 -0.438259,-1.00715 -0.06572,-0.34939 -0.331211,-0.91283 -0.590001,-1.2521 -0.25874,-0.33929 -0.592482,-0.9738 -0.74159,-1.41007 -0.149061,-0.43627 -0.606709,-1.46261 -1.016981,-2.28072 -1.141001,-2.27542 -1.237245,-3.87426 -0.28351,-4.71161 0.380175,-0.33386 0.787972,-0.56084 0.90619,-0.50447 0.11823,0.0563 0.364101,0.15488 0.546308,0.21887 0.186531,0.0655 0.82376,1.10179 1.457825,2.37085 0.619569,1.23997 1.202562,2.33396 1.295589,2.43112 0.09304,0.0971 0.169188,0.32279 0.169188,0.50137 0,0.1786 0.303489,0.84264 0.674491,1.47562 0.371007,0.63298 0.867822,1.64421 1.10416,2.24718 0.236288,0.60298 0.592587,1.36558 0.791767,1.69463 0.199231,0.32911 0.425029,0.80752 0.501822,1.0632 0.0768,0.25565 0.375906,0.80984 0.664741,1.23153 0.288782,0.42169 0.739164,1.33548 1.000801,2.03068 0.26169,0.69516 0.54341,1.35423 0.626053,1.46454 0.08265,0.11028 0.301009,0.61898 0.485221,1.13031 0.18421,0.51133 0.530391,1.30622 0.769313,1.76641 0.238867,0.46021 0.637543,1.38786 0.885899,2.06149 0.248355,0.67361 0.703901,1.71951 1.012289,2.32421 0.308391,0.60471 0.992738,2.06172 1.520756,3.23776 0.528018,1.1761 1.112645,2.47301 1.299121,2.88206 0.186534,0.40909 0.400576,0.95296 0.475629,1.20863 0.07505,0.25565 0.388768,0.96686 0.697103,1.58045 0.308389,0.61358 0.788127,1.78501 1.066104,2.60313 0.716974,2.1101 0.946723,2.72468 1.217373,3.25682 0.350346,0.68885 1.569932,4.97522 1.569932,5.51766 0,0.25643 0.120282,0.72993 0.267278,1.05218 0.656308,1.43856 1.22022,2.92505 1.22022,3.21645 0,0.17469 0.246668,0.99298 0.548204,1.81849 0.301483,0.82557 0.814852,2.42139 1.140844,3.5463 0.325992,1.12498 0.666479,2.13934 0.756612,2.25421 0.09018,0.1149 0.115425,0.33516 0.05618,0.48953 -0.131236,0.34207 0.434993,2.3696 0.661737,2.3696 0.08923,0 0.139353,0.31375 0.111414,0.69727 -0.02794,0.38349 0.05867,1.01655 0.192539,1.4068 0.133877,0.39024 0.298533,1.24787 0.365944,1.90586 0.06741,0.658 0.1947,1.19634 0.282825,1.19634 0.08818,0 0.150366,0.0628 0.138251,0.13951 -0.01213,0.0767 -0.0057,0.18131 0.01427,0.23244 0.02002,0.0512 0.07194,0.55316 0.115589,1.11561 0.04375,0.5625 0.15575,1.65023 0.24904,2.41725 0.09333,0.76697 0.267541,2.31491 0.387181,3.43984 0.11964,1.12491 0.256843,2.16895 0.304964,2.32006 0.04796,0.15114 0.122707,0.86232 0.165818,1.5805 0.04321,0.71813 0.163496,2.05876 0.267487,2.97917 0.104044,0.92038 0.238079,2.6775 0.297902,3.90471 0.05982,1.22719 0.147365,2.3517 0.194593,2.49888 0.04742,0.14724 0.128758,1.19066 0.181156,2.31876 0.05217,1.12806 0.131878,2.08767 0.176611,2.13244 0.04479,0.0448 -0.01053,0.19189 -0.122493,0.327 -0.147902,0.17825 -0.147475,0.40743 0,0.83509 0.112999,0.32421 0.205504,1.39973 0.205504,2.3901 0,0.99035 0.0537,1.85439 0.119387,1.92007 0.146049,0.14614 0.132933,3.6569 -0.01427,3.80404 -0.158805,0.1588 -0.126348,4.84271 0.03426,4.94149 0.07673,0.0471 0.09077,2.03936 0.03108,4.42702 -0.06608,2.64923 -0.03899,4.43179 0.06926,4.57362 0.114052,0.14938 0.108145,0.316 -0.01641,0.46609 -0.204397,0.24625 -0.382495,4.51767 -0.508042,12.18469 -0.0406,2.4838 -0.124227,4.59725 -0.185636,4.69662 -0.0614,0.0993 -0.0575,0.35124 0.009,0.55976 0.06614,0.20854 0.0411,0.47973 -0.0558,0.60264 -0.191274,0.24275 -0.39936,3.26969 -0.525013,7.63737 -0.04375,1.52089 -0.126081,2.84064 -0.182999,2.9327 -0.05686,0.0921 -0.07948,0.39561 -0.05006,0.6746 0.02951,0.27898 0.0054,0.59086 -0.05497,0.69306 -0.310338,0.53308 -0.522222,1.63635 -0.553477,2.88192 -0.02266,0.91614 -0.128969,1.50474 -0.309075,1.71575 -0.181468,0.21262 -0.239024,0.53771 -0.17024,0.96165 0.07057,0.4347 0.02582,0.67043 -0.138926,0.73371 -0.133557,0.0511 -0.289311,0.3715 -0.346075,0.71176 -0.172185,1.03126 -0.673068,2.97569 -1.045497,4.05848 -0.360357,1.04769 -0.422394,1.23512 -1.121765,3.38744 -0.223265,0.68705 -0.350286,1.33914 -0.282297,1.44916 0.06799,0.11007 0.02899,0.31384 -0.08639,0.45303 -0.115538,0.13918 -0.372906,0.82581 -0.571978,1.52586 -0.199126,0.70002 -0.478055,1.52385 -0.619941,1.83063 -0.141834,0.30679 -0.358619,0.85063 -0.481688,1.20858 -0.123117,0.35793 -0.550155,1.60438 -0.948991,2.76983 -0.398833,1.16548 -0.836882,2.29506 -0.973392,2.51015 -0.136516,0.21514 -0.476842,1.06054 -0.756294,1.87864 -0.279449,0.81814 -0.581673,1.65488 -0.671644,1.8594 -0.658731,1.49787 -2.330283,5.52073 -2.534838,6.10052 -0.137928,0.39095 -0.414328,0.9405 -0.614246,1.22117 -0.199867,0.28073 -0.423555,0.75633 -0.497135,1.0569 -0.07353,0.30055 -0.505038,1.23675 -0.958897,2.08043 -0.808219,1.50244 -0.839527,1.53401 -1.523244,1.53401 -0.436361,0 -0.800934,-0.12203 -0.972443,-0.32538 z M 176.856,286.68241 c -1.37603,-1.51678 -3.66304,-4.46112 -3.66462,-4.71775 -3.6e-4,-0.0714 -0.25108,-0.50614 -0.55705,-0.96633 -0.30592,-0.46022 -0.55659,-0.9454 -0.55701,-1.0782 -3.5e-4,-0.13276 -0.34423,-0.75849 -0.76398,-1.39046 -0.41971,-0.63192 -0.92872,-1.56896 -1.13106,-2.08229 -0.42116,-1.06857 -0.85368,-1.77958 -2.62933,-4.32233 -0.69834,-1.00001 -1.73796,-2.61305 -2.31035,-3.5846 -0.57235,-0.97153 -1.2329,-2.02237 -1.4679,-2.33518 -0.23494,-0.31279 -0.6445,-1.14605 -0.91008,-1.85171 -0.26558,-0.7056 -0.53719,-1.37009 -0.60356,-1.47658 -0.11794,-0.18926 -0.70722,-1.77648 -1.27999,-3.44752 -0.15773,-0.46022 -0.4033,-1.10037 -0.54571,-1.42264 -0.14241,-0.32226 -0.25863,-0.65695 -0.25833,-0.74371 0,-0.37854 -1.38113,-3.70406 -1.59206,-3.82973 -0.12829,-0.0763 -0.19034,-0.30339 -0.13775,-0.50438 0.0526,-0.20089 -0.0464,-0.76589 -0.22002,-1.25549 -0.1736,-0.48964 -0.50745,-1.60142 -0.74206,-2.47067 -0.23459,-0.86927 -0.81273,-2.70865 -1.28477,-4.08749 -0.47205,-1.37888 -0.85829,-2.6904 -0.85829,-2.9145 0,-0.2241 -0.26484,-1.06223 -0.58854,-1.8625 -0.67399,-1.66638 -1.12016,-3.16616 -1.64538,-5.53064 -0.20261,-0.91206 -0.50922,-1.81395 -0.68135,-2.00416 -0.22838,-0.25239 -0.30024,-0.62046 -0.26586,-1.36231 0.0259,-0.55907 -0.0772,-1.45615 -0.22912,-1.9935 -0.27724,-0.98078 -0.56474,-3.59127 -0.5251,-4.76767 0.0126,-0.34632 -0.0142,-0.68828 -0.0592,-0.75997 -0.28711,-0.46455 -0.38576,-15.03644 -0.10367,-15.3185 0.27615,-0.27612 0.23986,-1.22887 -0.0511,-1.34051 -0.18442,-0.0709 -0.21068,-0.33263 -0.10653,-1.06328 0.076,-0.53317 0.14597,-1.68063 0.15542,-2.54989 0.009,-0.86926 0.0952,-2.12051 0.19073,-2.78061 0.11349,-0.78525 0.10903,-1.27761 -0.0125,-1.42444 -0.12489,-0.15057 -0.12204,-0.26401 0.009,-0.34485 0.11454,-0.0709 0.19496,-0.87142 0.19496,-1.94008 0,-1.00074 0.0875,-3.10852 0.19418,-4.68395 0.10669,-1.57546 0.26641,-5.08174 0.35471,-7.79182 0.19285,-5.92073 0.77585,-12.15749 1.39047,-14.87505 0.15042,-0.66476 0.40364,-2.33034 0.56284,-3.70134 0.15916,-1.37096 0.3621,-2.58422 0.45076,-2.6961 0.17346,-0.21884 0.22354,-0.43988 0.67561,-2.98535 0.16272,-0.91647 0.39262,-1.7828 0.51084,-1.92521 0.11812,-0.14239 0.27307,-0.68945 0.34433,-1.21573 0.0711,-0.52624 0.26948,-1.66804 0.44069,-2.53731 0.17111,-0.86926 0.42622,-2.41718 0.56678,-3.43985 0.45049,-3.27756 0.60167,-4.07609 0.90526,-4.78192 0.16363,-0.38023 0.29732,-0.93094 0.29732,-1.2238 0,-0.29286 0.16006,-1.06952 0.35568,-1.72592 1.0837,-3.63639 1.91404,-6.19403 2.43981,-7.51534 0.32556,-0.81814 0.71705,-1.94307 0.87002,-2.49987 0.15291,-0.55681 0.38665,-1.18437 0.51932,-1.39454 0.13277,-0.2102 0.30058,-0.675 0.37316,-1.03294 0.0726,-0.35791 0.32931,-1.02731 0.57057,-1.48753 0.24119,-0.46018 0.78329,-2.00814 1.20471,-3.43985 0.77443,-2.6314 1.87031,-5.65647 2.72803,-7.5305 1.49759,-3.27217 1.63981,-3.6308 2.66531,-6.72226 0.29359,-0.88492 0.79803,-2.05633 1.1211,-2.60313 0.32297,-0.5468 0.69505,-1.29839 0.82677,-1.67024 0.13166,-0.37181 0.45567,-1.01858 0.72002,-1.4373 0.26434,-0.41873 0.48059,-0.93032 0.48059,-1.13689 0,-0.20656 0.11277,-0.37555 0.25036,-0.37555 0.13776,0 0.54198,-0.56481 0.89837,-1.2551 0.35646,-0.6903 1.02512,-1.84142 1.48599,-2.55807 0.46082,-0.71663 0.98464,-1.612228 1.16402,-1.990264 0.17941,-0.378025 0.44395,-0.785081 0.58793,-0.904575 0.144,-0.119549 0.26181,-0.340536 0.26181,-0.491205 0,-0.150597 0.13741,-0.537865 0.30545,-0.860433 0.55858,-1.072517 0.62436,-1.230553 0.61048,-1.467189 -0.0178,-0.300408 -1.93871,-1.815433 -2.30201,-1.815433 -0.15077,0 -0.35571,-0.152204 -0.45528,-0.338199 -0.26966,-0.503874 -7.99109,-6.996778 -8.40267,-7.065778 -0.19672,-0.03301 -0.35445,-0.209677 -0.35445,-0.397045 0,-0.468922 -4.52184,-4.590668 -6.21311,-5.663364 -0.29804,-0.189048 -0.86091,-0.646545 -1.25078,-1.016652 -0.3899,-0.37012 -1.07325,-1.007635 -1.51848,-1.416688 -0.44527,-0.409074 -1.55809,-1.457163 -2.47293,-2.329084 -0.91482,-0.871941 -2.05546,-1.83417 -2.53477,-2.138307 -0.47933,-0.304118 -0.8745,-0.648079 -0.87827,-0.764348 -0.005,-0.116334 -1.40827,-1.451485 -3.12125,-2.967152 -3.73603,-3.305728 -7.95341,-7.501459 -10.72888,-10.673881 -1.11839,-1.278315 -2.14273,-2.35128 -2.27635,-2.384342 -0.13347,-0.033 -0.24289,-0.191045 -0.24289,-0.351085 0,-0.160052 -0.31376,-0.648917 -0.69724,-1.086429 -1.48008,-1.688516 -1.92514,-2.244454 -2.32682,-2.906543 -0.6094,-1.004572 -2.42378,-3.103211 -2.69353,-3.115629 -0.12787,-0.0054 -0.23244,-0.161838 -0.23244,-0.346459 0,-0.184662 -0.21741,-0.623938 -0.48318,-0.976185 -0.26574,-0.352218 -0.64355,-1.005869 -0.83951,-1.452556 -0.19594,-0.446683 -0.86176,-1.567733 -1.47941,-2.491224 -0.61773,-0.923507 -1.2973,-2.022307 -1.51008,-2.44178 -0.21283,-0.419494 -0.5899,-1.013723 -0.83797,-1.320517 -0.88555,-1.09516 -3.95709,-6.492783 -4.23106,-7.435188 -0.1535,-0.527854 -0.87668,-2.124904 -1.60715,-3.54902 -3.76186,-7.333891 -6.29991,-12.427125 -6.50282,-13.049708 -0.12476,-0.382736 -0.42393,-0.932413 -0.66476,-1.22149 -0.24085,-0.289075 -0.43794,-0.639623 -0.43794,-0.778996 0,-0.470522 -1.72,-3.622782 -1.97672,-3.622782 -0.14089,0 -0.25452,-0.1890126 -0.25452,-0.4234734 0,-0.4472018 -0.47147,-1.2499649 -0.73411,-1.2499649 -0.0854,0 -0.28912,0.3346837 -0.45279,0.7437557 -0.16372,0.4090543 -0.37181,0.7437387 -0.46251,0.7437387 -0.0907,0 -0.27445,0.2719479 -0.40833,0.6043099 -0.13388,0.332365 -0.73237,1.337114 -1.32995,2.23277 -0.59754,0.895653 -1.40707,2.319231 -1.79889,3.163498 -0.39188,0.844285 -0.84948,1.648727 -1.01688,1.787686 -0.1674,0.139 -0.30438,0.335755 -0.30438,0.437374 0,0.101703 -0.28204,0.572478 -0.62674,1.046375 -0.3447,0.473895 -0.76751,1.138033 -0.93961,1.475823 -0.17204,0.337806 -0.4548,0.758477 -0.62832,0.934838 -0.17356,0.176289 -0.5568,0.694866 -0.85164,1.152221 -0.294846,0.457372 -1.406586,2.003003 -2.470533,3.434718 -1.063943,1.431731 -1.910471,2.656614 -1.881112,2.721972 0.02952,0.0653 -0.364997,0.57048 -0.876359,1.122513 -0.511312,0.55203 -1.222539,1.374424 -1.580473,1.827548 -0.357931,0.453125 -0.896705,1.077584 -1.197291,1.387663 -0.961428,0.991793 -2.695122,3.110541 -2.65406,3.243562 0.0216,0.07065 -0.271916,0.402898 -0.652673,0.738154 -0.380755,0.335254 -0.675439,0.665601 -0.65478,0.734102 0.02055,0.06851 -0.347916,0.542913 -0.818959,1.054243 -0.796618,0.864822 -1.83647,2.028572 -4.0703,4.5555 -0.497237,0.56247 -1.345455,1.56654 -1.884857,2.231269 -0.539455,0.664729 -1.895397,2.170832 -3.013259,3.346891 -1.11781,1.17606 -2.50258,2.682147 -3.077245,3.346894 -1.689416,1.954181 -17.984418,18.059121 -19.857201,19.625571 -0.943616,0.789237 -1.670709,1.507656 -1.615788,1.5965 0.05491,0.08886 -0.103778,0.238954 -0.352662,0.333576 -0.248885,0.09458 -0.637281,0.470987 -0.863077,0.836379 -0.225799,0.365393 -0.519324,0.664334 -0.652197,0.664334 -0.260689,0 -7.513593,6.008218 -8.281221,6.860033 -0.25568,0.283705 -0.590372,0.565483 -0.743746,0.626185 -0.153437,0.06066 -1.994224,1.463603 -4.090696,3.117556 -6.298804,4.969319 -16.791241,12.943906 -17.85914,13.57357 -0.549785,0.324146 -1.10052,0.727356 -1.223802,0.896026 -0.123331,0.16862 -0.284934,0.24593 -0.359146,0.17164 -0.07421,-0.0742 -0.405105,0.0934 -0.735316,0.37218 -0.330208,0.27892 -1.51053,1.12928 -2.622858,1.88974 -1.11238,0.76049 -2.532202,1.77647 -3.1552,2.25778 -0.622945,0.4813 -1.401217,1.01396 -1.729474,1.18371 -0.328259,0.16967 -0.645186,0.43456 -0.7042184,0.58849 -0.059083,0.15398 -0.204189,0.24274 -0.3225171,0.19735 -0.118281,-0.0453 -0.6810769,0.26355 -1.2506287,0.68656 -1.2738767,0.94611 -1.2333443,0.91953 -4.0020959,2.62764 -1.2439913,0.76747 -2.4270514,1.39543 -2.6290255,1.39543 -0.586576,0 -1.15444171,-0.59479 -1.27260981,-1.33295 -0.14256688,-0.89099 0.39461581,-1.42986 2.75114581,-2.75953 0.9564221,-0.53967 1.8226093,-1.0738 1.9248611,-1.18696 0.2666967,-0.29515 1.7042806,-1.25887 2.7890967,-1.86977 0.5113099,-0.28797 1.1388396,-0.71492 1.3945214,-0.94877 0.255681,-0.23385 1.3733324,-1.02221 2.4837644,-1.75185 1.118864,-0.73525 2.061055,-1.48795 2.113501,-1.68846 0.05218,-0.19898 0.239024,-0.36181 0.415592,-0.36181 0.176575,0 0.898969,-0.405586 1.605297,-0.901304 0.706328,-0.495764 1.556178,-1.041782 1.888548,-1.213396 0.332368,-0.171652 0.60613,-0.414462 0.608343,-0.539684 0,-0.125259 0.242557,-0.353153 0.534081,-0.506551 1.098992,-0.578222 3.759273,-2.440977 3.859626,-2.702556 0.0575,-0.149884 0.247881,-0.27245 0.423081,-0.27245 0.1752,0 0.647504,-0.271946 1.049606,-0.604311 1.28858,-1.065129 2.285427,-1.8129 2.41688,-1.8129 0.07032,0 0.442475,-0.27193 0.827132,-0.604295 0.384603,-0.332362 1.268655,-1.022661 1.964547,-1.533993 0.695837,-0.511328 1.593488,-1.24347 1.994697,-1.626953 0.401258,-0.383505 0.75777,-0.697276 0.792344,-0.697276 0.37907,0 3.979696,-2.816076 3.982171,-3.114467 0,-0.127757 0.173402,-0.232425 0.382971,-0.232425 0.209616,0 0.68266,-0.292859 1.051188,-0.650795 0.368582,-0.357935 0.72003,-0.651167 0.781014,-0.651631 0.06104,-5.89e-4 0.37833,-0.251498 0.705164,-0.557831 0.326836,-0.306314 0.663055,-0.556957 0.747229,-0.556957 0.08416,0 0.77901,-0.55344 1.544104,-1.229853 0.765094,-0.676437 2.144122,-1.86065 3.064491,-2.631581 0.920421,-0.770929 2.510173,-2.248683 3.532845,-3.283873 1.022676,-1.035186 2.214958,-2.111326 2.649634,-2.391408 0.434622,-0.280066 0.790234,-0.577618 0.790234,-0.661212 0,-0.08369 0.439262,-0.431807 0.976186,-0.773823 0.933232,-0.594481 14.590196,-13.923259 14.858842,-14.501805 0.07127,-0.153451 0.135412,-0.209139 0.142622,-0.123831 0.02687,0.317645 1.500568,-1.037061 1.500568,-1.37931 0,-0.195937 0.104579,-0.358897 0.232437,-0.362129 0.352666,-0.009 1.25506,-0.867248 1.25506,-1.193795 0,-0.158271 0.06593,-0.287827 0.146475,-0.287827 0.176144,0 2.642622,-2.384453 2.642622,-2.554729 0,-0.06566 0.77395,-0.927702 1.719935,-1.915767 1.566293,-1.636035 2.202258,-2.343232 3.587766,-3.989707 0.25816,-0.306795 1.052191,-1.239475 1.764474,-2.072592 0.712282,-0.83313 1.295062,-1.561452 1.295062,-1.618513 0,-0.05711 0.188271,-0.299891 0.418338,-0.53965 0.83941,-0.874635 4.885781,-5.576143 5.054705,-5.873089 0.09561,-0.168083 0.4303,-0.560845 0.743749,-0.872886 0.724721,-0.721417 2.269091,-2.496008 3.510182,-4.033445 0.530443,-0.657144 1.445597,-1.783387 2.033646,-2.502768 0.587999,-0.719383 1.069111,-1.37378 1.069111,-1.4542 0,-0.190795 1.310769,-1.814043 1.620368,-2.006659 0.131506,-0.08172 0.239027,-0.249125 0.23908,-0.371887 0,-0.122758 0.458605,-0.808881 1.019091,-1.52475 1.42177,-1.815986 2.509851,-3.477323 2.511901,-3.835455 0,-0.166476 0.124081,-0.404093 0.273501,-0.52812 0.14942,-0.124009 0.32701,-0.399776 0.39463,-0.612788 0.0676,-0.213013 0.19511,-0.477375 0.2833,-0.587503 0.85986,-1.07341 1.10135,-1.427434 1.46841,-2.15258 0.23298,-0.460192 0.75213,-1.332312 1.15372,-1.938033 0.4015,-0.605704 0.89273,-1.400597 1.09154,-1.7663993 0.19881,-0.3658211 0.65332,-1.071696 1.01003,-1.568628 0.35671,-0.4969318 0.64856,-1.0617208 0.64856,-1.255087 0,-0.1933663 0.16733,-0.5189143 0.3719,-0.7234505 0.44124,-0.4412965 0.46772,-0.8982241 0.10245,-1.7723955 -0.39268,-0.9397987 0.0294,-1.9463661 0.81644,-1.9463661 0.62531,0 1.1264,-0.4220976 1.1264,-0.9488095 0,-0.2004499 0.12555,-0.4126048 0.27892,-0.4714694 0.15343,-0.0588817 0.27893,-0.22148716 0.27893,-0.36139517 0,-0.24755585 0.25796,-0.24313076 1.61351,0.0276573 0.52956,0.10580967 0.41445,1.67431167 -0.24371,3.32041337 -0.42266,1.0571709 -0.42751,1.1208531 -0.1198,1.5804748 0.55305,0.8260842 2.65471,4.515493 2.65471,4.660273 0,0.07602 0.17445,0.359825 0.38764,0.630897 0.21326,0.271056 0.46504,0.772931 0.55954,1.115287 0.0945,0.342339 0.4206,0.989492 0.72462,1.438103 0.30396,0.448596 0.55421,0.94508 0.55608,1.103278 0,0.158269 0.37989,0.860898 0.84007,1.561559 0.46024,0.700667 0.83675,1.370302 0.83675,1.488086 0,0.117764 0.1046,0.317822 0.23242,0.444542 0.25905,0.256799 0.77215,1.214815 1.9673,3.673012 2.02542,4.165915 4.22051,8.544299 4.32606,8.628839 0.0639,0.05103 0.26239,0.385823 0.44112,0.743756 0.17879,0.357936 0.68075,1.110986 1.11553,1.673456 0.43484,0.562452 0.84732,1.203251 0.91669,1.423991 0.15396,0.489865 2.11941,3.643998 2.36544,3.796076 0.19569,0.120977 0.71745,0.987548 1.27904,2.124496 0.20207,0.40907 0.47246,0.911103 0.60084,1.115624 0.12847,0.204536 0.68937,1.124936 1.24655,2.045323 0.55715,0.920405 1.16434,1.846197 1.34934,2.057318 0.185,0.211118 0.33632,0.445006 0.33632,0.519732 0,0.250642 1.81097,2.809886 2.32101,3.280017 0.27735,0.255674 0.65735,0.763295 0.84449,1.128081 0.1871,0.364766 0.48289,0.781655 0.65729,0.926415 0.17451,0.14471 0.75222,0.850385 1.28402,1.568037 0.89516,1.208196 2.82787,3.213963 7.46661,7.749069 1.01028,0.987669 2.28067,2.30112 2.82314,2.918797 0.62584,0.712567 1.0846,1.085347 1.2551,1.019896 0.17896,-0.06869 0.26879,0.0207 0.26879,0.267362 0,0.47634 7.35804,7.487786 9.01916,8.594349 0.23027,0.15345 1.30637,1.115625 2.39136,2.138288 1.08491,1.022661 2.70006,2.445099 3.58913,3.160965 0.88912,0.71585 1.81048,1.48603 2.04758,1.711478 0.23701,0.225452 0.43097,0.365894 0.43097,0.312113 0,-0.0537 0.11725,0.0125 0.26043,0.14792 0.14328,0.135074 0.95053,0.873244 1.79394,1.640233 0.84342,0.767005 2.04404,1.88345 2.66807,2.480998 0.62406,0.597534 1.804,1.593484 2.62214,2.213196 0.81817,0.61971 2.35171,1.88793 3.40793,2.818252 1.05625,0.930344 2.08123,1.751576 2.27777,1.824981 0.19651,0.07332 0.35732,0.218133 0.35732,0.321606 0,0.103487 0.31376,0.360984 0.69725,0.572227 0.75976,0.418512 2.03915,1.321802 3.60205,2.543291 1.55387,1.214404 1.8058,1.422349 3.78899,3.126976 1.02271,0.879024 2.23594,1.771433 2.69613,1.983113 0.4602,0.21174 0.8786,0.44692 0.92968,0.52268 0.0513,0.0758 0.52636,0.35631 1.05601,0.62346 0.52965,0.26712 1.01149,0.56416 1.0708,0.66009 0.0592,0.0959 0.65094,0.47811 1.31471,0.84934 0.66386,0.37124 1.20712,0.73364 1.20734,0.80533 0,0.18907 1.5427,1.13424 3.0204,1.8511 0.90978,0.44137 1.70597,1.04658 2.76685,2.10319 1.01268,1.00855 1.89235,1.68634 2.74779,2.11717 1.15644,0.58236 2.32575,1.60303 3.36524,2.93746 0.52083,0.66868 0.14328,0.67678 -0.82655,0.0178 -0.39953,-0.27151 -1.82043,-0.86506 -3.15769,-1.31902 -3.76049,-1.27666 -5.9877,-2.45111 -13.54723,-7.14378 -0.79594,-0.49409 -1.48194,-0.89836 -1.5244,-0.89836 -0.0426,0 -0.30412,-0.21026 -0.58138,-0.46725 -0.27726,-0.25697 -0.76269,-0.53776 -1.07873,-0.62395 -0.31602,-0.0862 -0.55532,-0.24735 -0.53185,-0.35814 0.0237,-0.11081 -0.12241,-0.25383 -0.324,-0.31784 -0.20167,-0.0641 -0.78323,-0.44563 -1.29233,-0.84804 -0.50907,-0.40242 -1.01175,-0.73169 -1.117,-0.73169 -0.10527,0 -0.19144,-0.0708 -0.19144,-0.157556 0,-0.0867 -0.7591,-0.79758 -1.68684,-1.579836 -1.85645,-1.56531 -2.24821,-1.63554 -2.50437,-0.448934 -0.16629,0.770233 -0.63575,1.695351 -1.70929,3.368016 -0.46898,0.73065 -1.22625,2.03969 -1.68279,2.90895 -0.45656,0.86927 -1.06667,1.95803 -1.35588,2.41947 -0.28918,0.46146 -0.64804,1.13086 -0.79757,1.48752 -0.14954,0.35669 -0.61373,1.23289 -1.03164,1.94713 -0.41792,0.71423 -0.75981,1.4804 -0.75981,1.70259 0,0.22218 -0.24137,0.9419 -0.53635,1.59938 -0.29495,0.65744 -0.59511,1.48104 -0.66699,1.83021 -0.14258,0.69232 -0.42557,1.35194 -1.7883,4.16769 -0.92997,1.92148 -2.56985,6.62729 -2.66312,7.64209 -0.0289,0.31707 -0.12794,0.69359 -0.21945,0.83673 -0.25757,0.40286 -1.13436,2.644 -1.95667,5.00174 -0.41024,1.17604 -0.8193,2.30562 -0.90903,2.51016 -0.99619,2.26913 -1.35344,3.26347 -1.52331,4.23985 -0.11027,0.63378 -0.31451,1.31741 -0.45384,1.51909 -0.13937,0.20174 -0.25333,0.51815 -0.25333,0.70315 0,0.18502 -0.17666,0.85668 -0.39271,1.49263 -0.21599,0.63593 -0.4152,1.49096 -0.44264,1.90001 -0.0275,0.40906 -0.18543,1.06776 -0.35103,1.46372 -0.16559,0.39599 -0.30112,1.00813 -0.30112,1.36029 0,0.35215 -0.0795,0.78861 -0.17647,0.96992 -0.0969,0.18129 -0.21526,0.96691 -0.26274,1.74581 -0.0475,0.77891 -0.14151,1.50556 -0.20909,1.61473 -0.0675,0.10919 -0.10028,0.4267 -0.073,0.70563 0.0275,0.2789 -0.0592,0.70651 -0.19215,0.9502 -0.13296,0.24371 -0.26103,0.87802 -0.28453,1.40961 -0.0237,0.53161 -0.0902,1.04343 -0.14792,1.1374 -0.20563,0.33401 -1.09309,3.8072 -1.05395,4.12464 0.0221,0.17753 -0.0108,0.44834 -0.0716,0.60173 -0.47726,1.19499 -0.90203,3.11686 -0.95591,4.32473 -0.0353,0.79462 -0.15556,1.55465 -0.26713,1.68899 -0.11153,0.13434 -0.28037,0.78158 -0.37535,1.43833 -0.0949,0.65673 -0.26401,1.42964 -0.37563,1.71753 -0.1117,0.28788 -0.20646,1.08276 -0.21075,1.7664 -0.005,0.68364 -0.13452,2.41439 -0.28945,3.8461 -0.41923,3.87344 -0.59189,6.87381 -0.72144,12.53802 -0.0641,2.80524 -0.15864,5.16834 -0.20987,5.25135 -0.051,0.083 -0.081,1.05103 -0.066,2.15113 0.0143,1.10015 -0.016,2.12575 -0.0687,2.27915 -0.14632,0.4254 -0.33828,4.14464 -0.42234,8.18132 -0.0416,1.99418 -0.084,3.70947 -0.0943,3.81174 -0.0529,0.51881 0.0664,9.49931 0.1274,9.59823 0.0391,0.0635 0.11117,1.56955 0.16007,3.34689 0.0492,1.77731 0.1718,3.90089 0.27322,4.71902 0.3818,3.0809 0.60011,4.28655 0.84341,4.65782 0.13792,0.21047 0.47743,1.42405 0.75452,2.69684 0.27707,1.27279 0.69671,2.73252 0.93254,3.24387 0.23582,0.51132 0.56881,1.4317 0.74005,2.04532 0.17129,0.61361 0.47247,1.61766 0.66943,2.23125 0.19692,0.6136 0.3572,1.25983 0.35619,1.43605 0,0.17627 0.15489,0.67825 0.34661,1.11561 0.57768,1.31796 0.79842,2.02327 1.14156,3.64714 0.18018,0.85267 0.42068,1.64335 0.53442,1.75711 0.11366,0.11365 0.20676,0.39428 0.20676,0.62347 0,0.22916 0.0742,0.46253 0.16487,0.51857 0.0907,0.0561 0.22306,0.41193 0.29411,0.79094 0.0713,0.37897 0.32094,1.07021 0.55511,1.53605 0.23422,0.46585 0.56886,1.34353 0.74369,1.95042 0.17486,0.6069 0.46562,1.4436 0.64617,1.85937 0.18053,0.41577 0.47814,1.21616 0.66119,1.77863 0.18311,0.56248 0.47975,1.27367 0.65916,1.58048 0.17947,0.30679 0.38286,0.82567 0.45205,1.15307 0.0693,0.32739 0.43805,1.08043 0.81964,1.67346 0.38162,0.593 1.08615,1.81802 1.56563,2.7223 0.47954,0.90424 1.1117,1.95014 1.4048,2.32424 0.29315,0.37404 0.64234,0.88929 0.77601,1.14495 0.13364,0.25566 0.47055,0.75769 0.74869,1.11563 0.57789,0.74372 1.34312,2.07909 2.34419,4.09064 0.38165,0.76699 0.93359,1.75112 1.22654,2.18696 0.2929,0.43583 0.6249,1.06337 0.73781,1.39454 0.11293,0.33117 0.35925,0.80166 0.54742,1.04557 0.18817,0.24387 0.3421,0.54306 0.3421,0.66486 0,0.12168 0.21439,0.42284 0.4764,0.66902 0.26209,0.24616 0.65496,0.74187 0.87307,1.10153 0.21808,0.35969 0.49345,0.71404 0.61194,0.78742 0.43634,0.27037 1.75736,2.14357 1.75736,2.49198 0,1.21836 -2.30035,1.74372 -3.21589,0.73444 z m -57.79833,-20.27105 c -1.09604,-0.74476 -1.2012,-1.57737 -0.34957,-2.76789 0.60068,-0.83962 1.86346,-3.88537 1.86346,-4.49441 0,-0.20675 0.17988,-0.70936 0.39979,-1.11688 0.21989,-0.40756 0.4653,-0.99203 0.54541,-1.29882 0.22859,-0.87557 1.75324,-5.16131 1.99665,-5.61242 0.1205,-0.22342 0.22174,-0.64174 0.22502,-0.92972 0.005,-0.28794 0.12874,-0.68595 0.27891,-0.88446 0.15011,-0.19854 0.27297,-0.51108 0.27297,-0.69455 0,-0.18351 0.24898,-0.81595 0.55332,-1.40552 0.30427,-0.5895 0.64823,-1.49021 0.7643,-2.00153 0.11608,-0.51132 0.3691,-1.4544 0.56235,-2.0957 0.1932,-0.64128 0.35129,-1.41796 0.35129,-1.7259 0,-0.30793 0.11231,-0.82914 0.24963,-1.15822 0.1372,-0.32909 0.35706,-1.05853 0.48847,-1.62102 0.13138,-0.56246 0.3427,-1.14816 0.46951,-1.30154 0.12912,-0.15615 0.27997,-1.09748 0.3427,-2.13831 0.0761,-1.26288 0.24301,-2.18744 0.52043,-2.88203 0.39868,-0.9983 0.51525,-2.04806 0.84662,-7.62348 0.24557,-4.13072 0.0772,-10.17106 -0.31185,-11.19492 -0.20573,-0.54121 -0.37407,-1.16208 -0.37413,-1.37967 -5e-5,-0.21757 -0.11138,-0.4879 -0.24735,-0.60076 -0.14019,-0.11634 -0.21381,-0.43262 -0.17008,-0.73062 0.0469,-0.31857 -0.0317,-0.61543 -0.19844,-0.7541 -0.15153,-0.12581 -0.23724,-0.37521 -0.19038,-0.55431 0.0469,-0.17908 -0.21826,-1.15916 -0.58911,-2.17796 -0.37079,-1.01874 -0.79876,-2.27064 -0.95104,-2.78197 -0.15229,-0.51135 -0.44543,-1.4905 -0.65146,-2.17587 -0.20602,-0.68541 -0.53617,-1.45167 -0.73374,-1.70279 -0.19754,-0.25112 -0.35914,-0.52586 -0.35914,-0.61054 0,-0.0846 -0.21619,-0.61534 -0.48037,-1.17926 -1.59139,-3.39683 -2.12272,-4.61824 -2.12346,-4.88157 -3.7e-4,-0.12898 -0.15801,-0.49241 -0.35034,-0.80771 -0.19228,-0.31531 -0.40995,-0.85919 -0.48381,-1.20862 -0.0739,-0.34942 -0.36552,-1.01641 -0.64829,-1.48223 -0.28277,-0.4658 -0.5735,-1.0515 -0.64609,-1.30156 -0.37684,-1.29837 -1.3375,-3.52136 -1.52196,-3.52195 -0.11627,-3.9e-4 -0.25463,-0.23076 -0.30749,-0.51198 -0.0528,-0.28126 -0.38977,-1.55728 -0.7486,-2.83558 -0.35877,-1.27832 -0.75112,-2.70075 -0.87188,-3.16098 -0.12069,-0.46017 -0.37048,-1.33874 -0.555,-1.95233 -0.64503,-2.14486 -0.77304,-3.18558 -0.8007,-6.50786 -0.0384,-4.63083 0.59418,-16.53182 0.90584,-17.03604 0.0608,-0.0983 0.1847,-0.78198 0.27536,-1.51915 0.27744,-2.25611 0.47772,-3.31103 0.98745,-5.20077 0.26928,-0.99836 0.48961,-2.00663 0.48961,-2.24055 0,-0.23393 0.0946,-0.5201 0.21055,-0.63591 0.11582,-0.1158 0.31962,-0.83755 0.45286,-1.60382 0.13324,-0.76632 0.45687,-1.84685 0.71912,-2.40123 0.26229,-0.55437 0.47685,-1.20737 0.47685,-1.45111 0,-0.24373 0.37133,-1.19787 0.82525,-2.12035 0.4539,-0.92245 1.29275,-2.68126 1.86403,-3.90847 0.57135,-1.22717 1.19724,-2.52883 1.39083,-2.8925 0.19365,-0.36368 0.41132,-0.99123 0.48375,-1.39453 0.0726,-0.40331 0.24804,-0.86697 0.39019,-1.03034 0.14223,-0.16344 0.37331,-0.70725 0.51368,-1.20859 0.1403,-0.50135 0.39303,-1.40879 0.56158,-2.01654 0.16864,-0.60774 0.38841,-1.20362 0.48846,-1.32419 0.25736,-0.31011 1.10568,-2.85784 1.10578,-3.32103 6e-5,-0.21217 0.16741,-0.82596 0.3719,-1.36394 0.20445,-0.538 0.37179,-1.2652 0.37179,-1.61601 0,-0.35078 0.0909,-0.69403 0.20214,-0.76273 0.11116,-0.0687 0.16221,-0.27742 0.11353,-0.46379 -0.0485,-0.18639 0.0299,-0.50834 0.17518,-0.71544 0.23394,-0.33402 0.47033,-1.85117 0.74187,-4.76077 0.048,-0.51133 0.16291,-1.09705 0.256,-1.30156 0.0932,-0.20454 0.20913,-0.87394 0.25789,-1.48753 0.10692,-1.34585 0.28321,-2.50352 0.43884,-2.88203 0.063,-0.15346 0.22065,-1.03199 0.3502,-1.95238 0.12952,-0.92039 0.27776,-1.96629 0.32949,-2.324215 0.0517,-0.35794 0.22092,-2.156886 0.37614,-3.997694 0.15524,-1.840788 0.36921,-4.379708 0.47558,-5.642057 0.1064,-1.262348 0.27102,-2.440209 0.36589,-2.617464 0.0948,-0.177184 0.22353,-0.776034 0.28594,-1.330618 0.18732,-1.664837 0.51915,-3.414143 0.68334,-3.602192 0.0849,-0.09708 0.15944,-0.850208 0.16577,-1.673437 0.006,-0.823247 0.0756,-2.124351 0.1541,-2.891357 0.0785,-0.766988 0.0942,-1.415283 0.0349,-1.440636 -0.0592,-0.02534 -0.0793,-0.548325 -0.0448,-1.162128 0.0427,-0.751211 -0.007,-1.115998 -0.15001,-1.115998 -0.13707,0 -0.10988,-0.147207 0.0764,-0.413248 0.15924,-0.227286 0.28948,-0.541558 0.28948,-0.698361 0,-0.712407 1.52037,-0.891197 2.32422,-0.273322 0.57087,0.438798 0.51005,9.05222 -0.0773,10.953999 -0.21314,0.68999 -0.3875,1.611732 -0.3875,2.0483 0,0.436571 -0.12984,1.159879 -0.28852,1.607367 -0.15863,0.447487 -0.26776,1.108806 -0.24238,1.469578 0.0253,0.360791 -0.011,0.748591 -0.0812,0.861807 -0.0699,0.113125 -0.15839,1.29229 -0.1965,2.620196 -0.0379,1.327904 -0.129,2.511065 -0.20206,2.629259 -0.073,0.11812 -0.11538,0.526533 -0.094,0.907449 0.0211,0.380916 -0.0101,0.818073 -0.0689,0.97147 -0.0591,0.153449 -0.14521,0.697275 -0.19121,1.208605 -0.32501,3.609977 -0.57205,5.375847 -0.91043,6.507837 -0.21398,0.71588 -0.44833,1.97096 -0.52073,2.78909 -0.0724,0.81813 -0.27187,2.28238 -0.44323,3.25393 -0.1714,0.97153 -0.27107,1.92247 -0.22152,2.11321 0.0495,0.19075 0.0216,0.4836 -0.0622,0.65079 -0.21838,0.43593 -0.56402,1.78633 -0.81554,3.18602 -0.11951,0.66472 -0.28188,1.30834 -0.36098,1.43026 -0.0791,0.12185 -0.23332,0.70592 -0.34271,1.29781 -0.10941,0.59187 -0.31061,1.29209 -0.44706,1.55602 -0.13653,0.26391 -0.47505,1.26968 -0.75235,2.23502 -0.2773,0.96532 -1.04246,3.12866 -1.70037,4.8074 -0.65795,1.67873 -1.21149,3.25092 -1.23019,3.49373 -0.0184,0.2428 -0.13107,0.50149 -0.24983,0.57489 -0.30323,0.18742 -2.84001,5.56409 -2.69402,5.71006 0.0658,0.0658 -0.0232,0.19964 -0.19792,0.29739 -0.42513,0.23794 -1.33975,3.11036 -1.50342,4.72178 -0.0206,0.20451 -0.0935,0.45792 -0.16148,0.56311 -0.18616,0.2877 -0.81759,2.89599 -1.25912,5.20099 -0.21547,1.12492 -0.46688,2.18076 -0.55871,2.34631 -0.14995,0.27029 -0.36829,1.93043 -0.44957,3.41776 -0.0169,0.30679 -0.0977,0.66411 -0.17978,0.794 -0.0821,0.12991 -0.12882,0.67921 -0.10373,1.22059 0.0253,0.5414 0,1.06269 -0.0581,1.15834 -0.057,0.0956 -0.16702,1.93109 -0.24444,4.07868 -0.0774,2.14758 -0.15611,4.28627 -0.17476,4.75264 -0.0184,0.46639 -0.0983,0.95229 -0.17729,1.07985 -0.18573,0.30052 0.0766,6.13792 0.28158,6.26456 0.0858,0.0529 0.11142,0.3232 0.057,0.60047 -0.0619,0.31535 0.21801,1.52221 0.74755,3.22362 0.46552,1.49571 0.96956,3.30479 1.12004,4.02017 0.2517,1.19674 1.13721,3.68283 1.58907,4.46161 0.10432,0.17978 0.4888,1.1153 0.85432,2.0789 0.36557,0.96363 0.86708,2.04987 1.11443,2.41389 0.24735,0.36403 0.44974,0.81259 0.44974,0.99679 0,0.35868 0.81889,2.09238 1.20626,2.55378 0.12876,0.15343 0.29331,0.60826 0.36557,1.01085 0.0724,0.40258 0.36491,1.07197 0.65014,1.48753 0.28526,0.41553 0.69042,1.17389 0.90034,1.68519 0.9313,2.26842 1.34026,3.44103 1.34031,3.84349 1.1e-4,0.44462 0.65724,2.33174 0.92783,2.6644 0.21121,0.25963 1.6752,4.6068 1.6752,4.97422 0,0.1654 0.0945,0.53633 0.21035,0.82426 0.1157,0.28785 0.23703,0.69078 0.2696,0.8953 0.25725,1.61512 0.63849,3.47985 0.74738,3.65606 0.0726,0.11738 0.1131,0.79148 0.0901,1.49802 -0.0227,0.70659 0.0459,1.39042 0.15339,1.51962 0.13368,0.16113 0.13599,0.43505 0.007,0.87128 -0.10319,0.34996 -0.17673,1.34754 -0.16345,2.21681 0.0132,0.86924 -0.0237,1.70597 -0.082,1.85935 -0.0584,0.15346 -0.14653,1.24116 -0.19585,2.4172 -0.0753,1.79637 -0.27798,4.21462 -0.52971,6.32194 -0.0307,0.25565 -0.15149,0.63699 -0.26875,0.84738 -0.11726,0.21039 -0.23507,0.87977 -0.2618,1.4875 -0.0269,0.60772 -0.10499,1.18863 -0.17383,1.29091 -0.0689,0.10222 -0.18174,0.62994 -0.25073,1.17265 -0.069,0.54271 -0.33546,1.56876 -0.59206,2.28011 -0.25661,0.71137 -0.41553,1.37603 -0.35314,1.47697 0.0624,0.10099 0.0248,0.18358 -0.0834,0.18358 -0.10829,0 -0.1969,0.18595 -0.1969,0.41322 0,0.91467 -1.20462,5.17067 -1.97203,6.96742 -0.44938,1.05206 -0.81707,2.0399 -0.81707,2.19518 0,0.15525 -0.46018,1.51278 -1.02266,3.01665 -0.56248,1.50393 -1.02269,2.88878 -1.02269,3.07753 0,0.1887 -0.36395,1.23757 -0.80884,2.33075 -0.44485,1.09317 -0.86208,2.26434 -0.92717,2.60254 -0.33358,1.73378 -2.61733,5.79998 -3.25751,5.79998 -0.17176,0 -0.61409,-0.20506 -0.98288,-0.45565 z m -35.892003,-6.73547 c -0.678024,-0.17929 -0.881261,-0.87099 -0.909721,-3.096 -0.01535,-1.17814 0.01695,-2.21404 0.0714,-2.30198 0.05433,-0.0879 0.119905,-1.47499 0.145743,-3.08233 0.02582,-1.60733 0.110841,-2.92243 0.189007,-2.92243 0.07817,0 0.140782,-1.58233 0.139141,-3.51627 -0.0054,-3.43868 0.118533,-5.12825 0.39546,-5.50175 0.07585,-0.10224 0.194964,-0.84186 0.264747,-1.64358 0.06973,-0.80168 0.289996,-1.87161 0.489439,-2.37758 0.199443,-0.50601 0.362623,-1.20015 0.362623,-1.54261 0,-0.34246 0.124973,-0.86231 0.277767,-1.15524 0.152737,-0.29293 0.278292,-0.6836 0.278872,-0.8682 0,-0.18455 0.160909,-0.68659 0.356193,-1.11561 0.195228,-0.42904 0.413908,-1.09475 0.485906,-1.47936 0.072,-0.38464 0.205084,-0.7452 0.295793,-0.80123 0.09067,-0.0559 0.16487,-0.30327 0.16487,-0.54945 0,-0.42348 0.255155,-1.11922 0.892858,-2.43471 0.356772,-0.73599 0.211354,-1.10815 -0.55938,-1.43186 -0.33685,-0.14149 -0.931017,-0.47417 -1.320467,-0.73935 -0.389454,-0.26517 -1.331065,-0.62075 -2.09247,-0.79016 -0.761405,-0.16934 -1.426935,-0.37682 -1.478905,-0.46092 -0.05216,-0.084 -0.515527,-0.29273 -1.030159,-0.46369 -0.51463,-0.1709 -1.287631,-0.50633 -1.717775,-0.74537 -0.43014,-0.23899 -1.2841,-0.61893 -1.897662,-0.84427 -0.613616,-0.22534 -2.064323,-1.04682 -3.223773,-1.82552 -1.159447,-0.77865 -2.247215,-1.49944 -2.417193,-1.6017 -0.169976,-0.10224 -0.350923,-0.23334 -0.402051,-0.29121 -0.05109,-0.0579 -0.469512,-0.36314 -0.929698,-0.67837 -2.59777,-1.77941 -6.645403,-6.79741 -7.424573,-9.2045 -0.123062,-0.38013 -0.454228,-0.88515 -0.735948,-1.12219 -0.281718,-0.23704 -0.47721,-0.53611 -0.43441,-0.66454 0.04269,-0.12848 -0.139408,-0.67773 -0.405054,-1.22057 -0.265592,-0.54288 -0.4829,-1.14453 -0.4829,-1.33703 0,-0.42709 -0.923531,-3.24119 -1.169621,-3.56389 -0.09741,-0.12776 -0.201025,-0.54606 -0.230329,-0.9297 -0.07547,-0.98856 -0.258738,-2.10368 -0.37717,-2.29536 -0.05548,-0.0898 -0.173453,-0.60367 -0.262168,-1.14203 -0.08875,-0.53839 -0.262164,-1.22989 -0.385391,-1.53671 -0.25215,-0.62781 -0.277293,-0.78848 -0.509362,-3.25394 -0.221581,-2.35458 -0.142211,-7.94856 0.122226,-8.61171 0.114804,-0.28793 0.208669,-0.89112 0.208669,-1.34049 0,-1.1749 0.386972,-3.67196 0.61319,-3.95657 0.176881,-0.2226 0.347762,-0.93677 0.631432,-2.63898 0.05961,-0.35753 0.216784,-0.81771 0.349393,-1.02266 0.132559,-0.20496 0.366949,-0.87466 0.520801,-1.48828 0.57693,-2.30045 0.731463,-2.80573 1.052135,-3.43985 0.181049,-0.35793 0.507357,-1.23276 0.725142,-1.94407 0.217785,-0.71129 0.508623,-1.42251 0.646239,-1.58046 0.332372,-0.38153 2.899255,-5.423 2.899255,-5.69433 0,-0.1167 0.221794,-0.53755 0.492864,-0.93532 0.438996,-0.64408 0.959688,-1.56262 1.885699,-3.32636 0.161072,-0.30679 0.390718,-0.64148 0.51036,-0.74375 0.119586,-0.10223 0.778745,-1.14818 1.464731,-2.32422 0.685979,-1.17606 1.661797,-2.68217 2.168521,-3.3469 0.506674,-0.66472 1.066369,-1.44429 1.243675,-1.73242 1.058991,-1.72031 2.681258,-4.20231 3.051523,-4.66864 0.237554,-0.29921 0.485961,-0.67574 0.552003,-0.83674 0.06608,-0.16094 1.059304,-1.41951 2.207158,-2.79672 1.147854,-1.3772 2.1778,-2.70329 2.288802,-2.94686 0.110949,-0.24359 0.484219,-0.74837 0.82945,-1.1218 0.566178,-0.61234 1.250157,-1.54892 3.211492,-4.39742 0.351925,-0.51115 0.786334,-1.03887 0.965327,-1.17265 0.500348,-0.37406 0.446853,-1.05469 -0.05818,-0.74003 -5.953518,3.70897 -10.116213,4.72886 -13.226452,3.24052 -1.414235,-0.67678 -2.006504,-1.23758 -2.286219,-2.16483 -0.07711,-0.25568 -0.420604,-0.92507 -0.763305,-1.48752 -1.220748,-2.00363 -1.63513,-6.78089 -0.739955,-8.53095 0.137037,-0.26788 0.308233,-0.84268 0.38044,-1.27731 0.07226,-0.43464 0.205506,-0.79023 0.296161,-0.79023 0.257738,0 0.773686,-1.12268 0.680237,-1.48013 -0.04744,-0.18052 0.06457,-0.41382 0.255367,-0.53299 0.186634,-0.11651 0.730571,-1.02912 1.208727,-2.02793 0.478159,-0.99881 0.976504,-1.94152 1.107428,-2.09491 0.130916,-0.15345 0.690199,-1.07381 1.242781,-2.04532 0.552629,-0.97154 1.281306,-2.07451 1.619262,-2.4511 0.33801,-0.37657 0.708752,-0.85162 0.823864,-1.05564 0.517795,-0.91751 1.970028,-2.85371 3.227144,-4.302678 0.754132,-0.869269 1.478853,-1.706002 1.610411,-1.8594 0.131557,-0.153453 0.440999,-0.56067 0.687562,-0.905045 0.390295,-0.545013 0.882843,-1.094906 2.820089,-3.148279 0.221844,-0.235134 0.535926,-0.629594 0.697947,-0.87656 0.616037,-0.939158 8.660179,-9.195645 10.50461,-10.78192 0.594535,-0.511331 1.565714,-1.37924 2.158248,-1.928664 0.592523,-0.549445 1.248621,-1.118981 1.45797,-1.265634 0.20942,-0.146672 0.38072,-0.378346 0.38072,-0.514845 0,-0.136503 0.18827,-0.299375 0.41833,-0.361898 0.54921,-0.149346 1.62696,-1.145867 1.62696,-1.504476 0,-0.15488 0.13945,-0.281533 0.30991,-0.281533 0.3,0 0.74955,-0.360413 2.02948,-1.626972 0.33585,-0.332364 0.73153,-0.604293 0.87932,-0.604293 0.14774,0 0.37274,-0.125441 0.50008,-0.278911 0.28567,-0.34421 1.46256,-0.356591 1.90589,-0.02016 0.24777,0.188103 0.32535,0.519468 0.32535,1.389499 0,1.142497 0,1.142497 -8.320758,9.40134 -4.576372,4.542367 -9.073758,9.116065 -9.99418,10.163761 -0.92037,1.047714 -2.640411,2.915963 -3.822205,4.151671 -1.18185,1.235711 -2.796372,3.167137 -3.587924,4.292067 -0.791555,1.12494 -1.874578,2.60454 -2.406708,3.28799 -0.532183,0.68346 -1.100733,1.5202 -1.263493,1.8594 -1.297857,2.70524 -2.358903,4.68762 -2.649844,4.95091 -0.482534,0.4367 -0.912411,1.31964 -0.793453,1.62967 0.05471,0.14256 -0.0216,0.49062 -0.170025,0.77345 -1.315673,2.5106 -1.728105,5.25257 -1.18686,7.89115 0.111683,0.54471 0.235499,1.16551 0.275133,1.37959 0.09566,0.51733 0.956526,1.3677 1.704597,1.68381 1.008233,0.4261 4.97823,-1.04138 9.142135,-3.37932 0.450699,-0.25309 0.961429,-0.46014 1.134942,-0.46014 0.173506,0 0.541195,-0.20918 0.817062,-0.46485 0.27587,-0.25565 0.584259,-0.46485 0.685351,-0.46485 0.289361,0 1.525445,-0.67586 1.935347,-1.05822 0.204556,-0.19078 0.748441,-0.57541 1.208626,-0.85472 0.460184,-0.27934 1.045916,-0.67466 1.301546,-0.87849 1.036749,-0.82659 3.947912,-1.36704 4.243861,-0.78788 0.27413,0.53635 0.404738,1.51199 0.217892,1.62746 -0.09604,0.0594 -0.338327,0.47815 -0.53856,0.9307 -0.469988,1.06256 -1.325632,2.32108 -2.527249,3.71728 -1.284468,1.49247 -4.556889,5.83502 -4.556889,6.04709 0,0.0927 -0.160393,0.25462 -0.356457,0.35956 -0.196071,0.10489 -0.746859,0.77799 -1.224015,1.49574 -0.477157,0.71774 -1.018458,1.38574 -1.20288,1.48445 -0.184421,0.0986 -0.777797,0.7882 -1.31857,1.53226 -0.540774,0.74406 -1.249314,1.6457 -1.57457,2.00361 -0.325201,0.35794 -0.851007,1.11098 -1.168458,1.67346 -0.317459,0.56244 -0.950099,1.4736 -1.405805,2.02473 -0.455757,0.55117 -0.785228,1.11527 -0.732205,1.25353 0.05308,0.13828 -0.03689,0.30263 -0.199972,0.36522 -0.375483,0.14415 -1.601501,1.80103 -1.601501,2.16443 0,0.15006 -0.230117,0.52782 -0.51131,0.83939 -0.774478,0.85797 -1.255693,1.63396 -2.277416,3.67227 -0.512631,1.02268 -1.555227,3.03081 -2.316949,4.46252 -1.294693,2.43358 -2.173584,4.18846 -3.445508,6.87975 -0.724458,1.53298 -1.547533,4.13607 -1.416027,4.47872 0.05954,0.15523 -0.02372,0.4833 -0.184581,0.72912 -0.161069,0.2458 -0.240288,0.53191 -0.176094,0.63578 0.06419,0.10385 -0.0054,0.3795 -0.152059,0.61248 -0.147797,0.23299 -0.329316,0.79903 -0.403367,1.25788 -0.07406,0.45885 -0.255945,1.17006 -0.404263,1.58046 -0.148258,0.41044 -0.294476,1.30209 -0.324886,1.98151 -0.03055,0.67941 -0.115429,1.33262 -0.188955,1.45161 -0.07354,0.119 -0.08365,0.41561 -0.02266,0.65916 0.06113,0.24359 0.0216,0.4983 -0.08808,0.56604 -0.109626,0.0678 -0.176467,0.38781 -0.14858,0.71132 0.02793,0.32352 -0.01481,0.69375 -0.09425,0.82265 -0.07968,0.129 -0.127455,0.54612 -0.10615,0.92703 0.02108,0.38091 -0.02687,0.84894 -0.107468,1.04005 -0.176523,0.41953 0.04639,10.46092 0.272706,12.29633 0.305859,2.47816 0.595907,4.09142 0.76731,4.26729 0.09467,0.0971 0.172078,0.4539 0.172078,0.79279 0,0.33885 0.07395,0.76139 0.164283,0.93898 0.350078,0.68825 0.572133,1.28453 0.775898,2.08386 0.116533,0.45722 0.329207,0.99881 0.472625,1.20352 0.14337,0.20467 0.260637,0.58243 0.260637,0.83944 0,0.39057 0.418756,1.44161 1.114331,2.79686 0.07868,0.15342 0.671433,1.31193 1.317199,2.57457 0.782595,1.53024 1.438427,2.54756 1.966974,3.05131 0.436097,0.41562 0.748862,0.82683 0.6951,0.91384 -0.115963,0.18762 0.277342,0.57746 3.062802,3.03612 1.158608,1.02266 2.412138,2.01445 2.785671,2.204 0.373484,0.18954 1.30666,0.70718 2.073652,1.15035 0.766991,0.44314 1.812911,0.94138 2.324223,1.10712 0.511309,0.16576 1.055193,0.35122 1.208624,0.41215 0.15338,0.061 0.36257,0.12364 0.464823,0.13938 0.102259,0.016 0.311444,0.0802 0.464823,0.14325 0.153434,0.0632 0.613613,0.21564 1.022673,0.33903 0.40906,0.12328 0.848004,0.30697 0.975344,0.40803 0.303908,0.24117 3.325336,-0.007 3.630353,-0.2987 0.125812,-0.12008 0.855699,-0.24156 1.621951,-0.26988 0.766309,-0.0284 1.47332,-0.13167 1.571196,-0.22948 0.09787,-0.0978 0.57261,-0.17788 1.054932,-0.17788 0.482375,0 0.904925,-0.0831 0.939028,-0.18493 0.04059,-0.12153 0.45523,-0.11566 1.207833,0.016 1.145893,0.20193 1.145893,0.20193 1.208613,1.22402 0.0627,1.02207 0.0627,1.02207 -0.96827,2.00503 -1.305709,1.24498 -2.005657,1.59667 -4.848937,2.43643 -1.26576,0.37383 -2.426895,0.74654 -2.580272,0.8283 -0.475575,0.25344 -1.528662,2.1886 -1.694373,3.11364 -0.08674,0.48406 -0.293366,1.32163 -0.459184,1.86131 -0.165761,0.53967 -0.25078,1.18301 -0.188901,1.42963 0.06187,0.24662 0.03162,0.49837 -0.0672,0.55947 -0.09884,0.061 -0.257472,0.38 -0.352453,0.70867 -0.09503,0.32869 -0.436624,1.4988 -0.75919,2.60033 -0.322568,1.1015 -0.542144,2.07448 -0.487963,2.16217 0.05424,0.0878 -0.02476,0.40666 -0.175415,0.70873 -0.361361,0.72433 -0.851956,4.91562 -0.822439,7.0264 0.01267,0.92042 -0.02109,1.79897 -0.07509,1.95237 -0.177735,0.50344 -0.256367,4.54306 -0.09931,5.09885 0.09013,0.31884 0.07975,0.6323 -0.0253,0.75861 -0.0983,0.1185 -0.235599,1.67286 -0.305119,3.45436 -0.173257,4.43889 -0.426929,4.87468 -2.515863,4.32222 z"
      id="path32" />
  </g>
</svg>