<?xml version="1.0" encoding="UTF-8" standalone="no"?>
<svg version="1.1" id="svg8" viewBox="0.5 0.5 209 290.09299" width="209" height="290.09299"
   xmlns="http://www.w3.org/2000/svg" xmlns:svg="http://www.w3.org/2000/svg"
   xmlns:rdf="http://www.w3.org/1999/02/22-rdf-syntax-ns#" xmlns:cc="http://creativecommons.org/ns#"
   xmlns:dc="http://purl.org/dc/elements/1.1/">
   <defs id="defs2" />
   <metadata id="metadata5">
      <RDF>
         <Work rdf:about="">
            <format>
               image/svg+xml
            </format>
            <type rdf:resource="http://purl.org/dc/dcmitype/StillImage" />
         </Work>
      </RDF>
   </metadata>
   <path style="fill:#000000;fill-opacity:1;stroke:#000000;stroke-width:1.00767;stroke-dasharray:none;stroke-opacity:1"
      d="m 28.290781,289.73096 c 1.284961,-9.54968 7.362444,-19.37688 9.500143,-29.36498 5.633651,-19.18597 4.377896,-39.5066 4.883287,-59.28687 -0.838407,-18.95569 -2.339166,-38.38397 -10.054036,-56.02615 -4.147798,-13.53397 -11.193294,-25.98688 -16.475657,-38.99882 4.725537,-4.86625 8.342526,13.02931 11.726462,17.43795 6.956787,14.82775 12.738958,30.42424 15.735844,46.46637 3.50796,25.83033 2.839479,51.90439 0.985043,77.84991 -2.760059,14.55539 -7.935323,28.77676 -14.6022,42.04535 0.259341,0.58857 -2.295941,-0.11491 -1.698886,-0.12276 z m 149.117579,-0.68955 c -6.43788,-9.28393 -13.01896,-18.90075 -16.80684,-29.64484 -4.875,-14.22086 -10.32791,-28.78642 -9.16983,-44.14912 0.59842,-20.23152 0.61001,-41.00496 5.81033,-60.82908 2.82739,-16.8398 9.83192,-32.72584 16.47496,-48.34734 5.82823,-10.843007 4.66337,-9.153743 -5.99562,-19.668493 C 152.42178,72.154768 135.01533,59.057061 125.05886,40.208836 118.81234,30.102699 114.68795,18.789843 108.52397,8.637999 94.140433,34.776599 72.355811,55.726056 51.094143,76.276421 35.031906,89.328945 18.859325,102.50981 1.0039344,112.99971 0.95851437,105.98292 16.554283,101.36208 22.261446,95.099945 50.992737,74.724395 76.042647,49.46056 97.362522,21.472356 102.11147,15.096668 105.75713,7.1443021 108.98263,1.2111097 c 2.65593,1.66207 4.2642,13.1703953 9.02203,18.1583193 8.28851,16.897387 17.95313,33.666751 32.4792,45.998306 13.39926,13.09873 27.72855,25.407581 42.90637,36.389525 4.95203,2.56516 25.30404,16.81591 10.00082,9.72504 -7.73276,-2.80869 -15.67848,-10.54922 -21.90609,-12.676936 -8.51678,14.218526 -13.61005,30.085166 -18.84345,45.724306 -3.14259,16.32919 -7.45483,32.51196 -6.92436,49.3256 -0.85344,17.90248 -2.49399,36.53489 4.48615,53.52634 2.95001,10.86015 7.49568,21.1832 13.8232,30.49852 -0.51566,2.72043 11.8661,13.43751 3.38186,11.16128 z m -58.24149,-20.42646 c 0.66966,-9.1814 6.95088,-19.39971 8.738,-29.33177 3.06147,-12.93535 2.52371,-26.7851 -3.57455,-38.78166 -5.6854,-12.03722 -11.18982,-24.84747 -8.80295,-38.53105 0.0699,-12.33372 4.61707,-23.86476 9.73782,-34.84299 5.70332,-15.49588 5.95283,-32.262229 8.33486,-48.415329 0.70866,-13.656817 5.48465,6.234472 1.54625,11.0597 -1.09491,17.711469 -4.27649,35.567869 -12.72957,51.338689 -4.11941,15.71821 -6.83131,33.3035 0.63372,48.50662 5.98084,12.68373 12.36512,26.3389 9.54025,40.74241 -1.70897,13.17213 -6.16186,26.04577 -11.69645,38.047 l -0.73775,0.66753 -0.99044,-0.45915 z m -36.167182,-6.78713 c -1.572223,-9.80065 -0.683411,-21.05844 2.566102,-30.83755 4.206836,-10.12348 -15.356039,-8.1665 -19.147031,-16.84564 -12.623805,-15.13974 -11.442905,-37.97785 -1.782946,-54.39154 5.826816,-11.63123 14.220256,-21.69094 21.79161,-32.1734 -9.811275,9.88015 -23.94367,-1.67768 -15.93105,-13.23591 8.692796,-15.781415 21.713701,-29.03722 35.581577,-40.222041 5.29075,4.717882 -11.569041,13.741331 -14.890658,19.692964 -7.712705,8.610617 -17.745837,18.140647 -17.318626,30.459387 4.716703,10.06183 18.1553,-9.89543 22.840278,-3.68568 -10.394173,15.36493 -24.497952,29.162 -29.108556,47.72525 -4.012606,16.09544 -3.064799,36.50563 10.92364,47.56898 5.178205,7.88595 17.680749,0.4323 20.951908,5.62802 -11.468326,3.41658 -13.047086,15.73608 -13.50846,26.57754 -1.299459,2.98809 2.008354,14.32811 -2.967788,13.73962 z"
      id="path32" />
</svg>