<?xml version="1.0" encoding="UTF-8" standalone="no"?>
<svg
   width="512"
   height="512"
   viewBox="0 0 512 512"
   version="1.1"
   id="SVGRoot"
   sodipodi:docname="hebammenpraxis_square_thick.svg"
   inkscape:export-filename="hebammenpraxis_square_thick_with_bg.svg"
   inkscape:export-xdpi="96"
   inkscape:export-ydpi="96"
   xmlns:inkscape="http://www.inkscape.org/namespaces/inkscape"
   xmlns:sodipodi="http://sodipodi.sourceforge.net/DTD/sodipodi-0.dtd"
   xmlns="http://www.w3.org/2000/svg"
   xmlns:svg="http://www.w3.org/2000/svg"
   xmlns:rdf="http://www.w3.org/1999/02/22-rdf-syntax-ns#"
   xmlns:cc="http://creativecommons.org/ns#"
   xmlns:dc="http://purl.org/dc/elements/1.1/">
  <sodipodi:namedview
     id="namedview6"
     pagecolor="#ffffff"
     bordercolor="#000000"
     borderopacity="0.25"
     inkscape:showpageshadow="2"
     inkscape:pageopacity="0.0"
     inkscape:pagecheckerboard="0"
     inkscape:deskcolor="#d1d1d1"
     showgrid="false"
     showguides="false" />
  <defs
     id="defs10" />
  <metadata
     id="metadata13">
    <rdf:RDF>
      <cc:Work
         rdf:about="">
        <dc:format>image/svg+xml</dc:format>
        <dc:type
           rdf:resource="http://purl.org/dc/dcmitype/StillImage" />
      </cc:Work>
    </rdf:RDF>
  </metadata>
  <path
     id="rect164"
     style="fill:#e7d6c6;fill-opacity:1"
     d="m 64,0 h 192 192 c 32.06212,0 64,31.990035 64,64 v 192 192 c 0,32.01405 -32.02503,64 -64,64 H 256 64 C 31.991335,512.00101 0,480.05269 0,448 V 256 64 C 0,31.979602 31.960548,0 64,0 Z"
     sodipodi:nodetypes="ccccccccccccc" />
  <path
     style="fill:#000000;fill-opacity:1;stroke:#000000;stroke-width:7.36865;stroke-dasharray:none;stroke-opacity:1"
     d="m 125.572,475.63977 c 2.18485,-14.51596 12.51851,-29.45374 16.15325,-44.63613 9.57901,-29.16353 7.4438,-60.0518 8.30313,-90.11872 -1.42556,-28.81352 -3.97732,-58.3454 -17.09502,-85.16231 -7.05258,-20.57227 -19.03215,-39.50126 -28.01383,-59.27998 8.0349,-7.39695 14.18491,19.80511 19.93869,26.50647 11.82875,22.53886 21.66025,46.24623 26.75591,70.631 5.96462,39.26327 4.828,78.89705 1.67488,118.33541 -4.69298,22.12486 -13.49257,43.74199 -24.82835,63.91086 0.44096,0.89467 -3.90383,-0.17468 -2.88866,-0.1866 z m 253.54698,-1.04816 c -10.94641,-14.11198 -22.13635,-28.72999 -28.57693,-45.06149 -8.28903,-21.61638 -17.5607,-43.75668 -15.59158,-67.10867 1.01749,-30.75286 1.03718,-62.32943 9.87939,-92.46299 4.80743,-25.59727 16.71737,-49.74478 28.01264,-73.49016 9.90981,-16.48187 7.92919,-13.91411 -10.19447,-29.89701 C 336.63391,144.91402 307.03746,125.00492 290.10832,96.354753 279.48725,80.992957 272.47447,63.796886 261.99378,48.365624 237.53723,88.097497 200.49647,119.94163 164.3449,151.17913 c -27.31084,19.84044 -54.80933,39.87595 -85.169144,55.82108 -0.07718,-10.66585 26.440504,-17.68974 36.144484,-27.20847 48.85228,-30.97176 91.44503,-69.37395 127.69556,-111.9173 8.0747,-9.69134 14.27348,-21.779308 19.75783,-30.798027 4.51593,2.526422 7.25048,20.019596 15.3403,27.601477 14.09309,25.684813 30.52599,51.175 55.22491,69.91953 22.78298,19.91069 47.1473,38.6207 72.95439,55.31376 8.41998,3.89915 43.02486,25.56093 17.00453,14.7825 -13.14812,-4.26935 -26.65835,-16.03532 -37.24728,-19.26952 -14.48121,21.6128 -23.14135,45.73081 -32.03981,69.50301 -5.34338,24.82111 -12.67555,49.41967 -11.77358,74.97717 -1.45113,27.21259 -4.24057,55.5347 7.62786,81.36248 5.01595,16.50793 12.74504,32.19944 23.50381,46.35916 -0.87679,4.13516 20.17612,20.42563 5.75022,16.96563 z m -99.02892,-31.04913 c 1.13865,-13.95615 11.81869,-29.48845 14.85735,-44.58564 5.20548,-19.66233 4.29111,-40.71457 -6.07784,-58.94987 -9.66699,-18.29715 -19.02624,-37.76932 -14.96779,-58.56897 0.11886,-18.74782 7.85047,-36.27552 16.55737,-52.96295 9.69744,-23.55444 10.12167,-49.04005 14.17189,-73.59349 1.20495,-20.759 9.32562,9.47667 2.6291,16.81124 -1.86168,26.92224 -7.27139,54.06478 -21.64431,78.03714 -7.00428,23.8924 -11.61536,50.62285 1.07754,73.73228 10.16933,19.27985 21.02463,40.03634 16.22142,61.93033 -2.90576,20.02224 -10.47709,39.59076 -19.88762,57.83319 l -1.25443,1.01466 -1.68406,-0.69792 z m -61.49563,-10.31675 c -2.67327,-14.89744 -1.16199,-32.00981 4.36318,-46.87449 7.15296,-15.38815 -26.1101,-12.41344 -32.55599,-25.60615 -21.46448,-23.01309 -19.45656,-57.72806 -3.0316,-82.67762 9.90746,-17.67999 24.17894,-32.97121 37.05264,-48.90504 -16.68225,15.01828 -40.71181,-2.55014 -27.08782,-20.11917 14.7805,-23.98849 36.92015,-44.1379 60.49993,-61.13934 8.99594,7.1714 -19.67103,20.88744 -25.31883,29.93419 -13.11403,13.08855 -30.17351,27.57462 -29.44713,46.29967 8.01988,15.29444 30.86974,-15.04152 38.83567,-5.6024 -17.67336,23.35539 -41.65425,44.32757 -49.4937,72.54455 -6.82272,24.46581 -5.21114,55.49023 18.57363,72.30703 8.80458,11.987 30.06284,0.65711 35.62486,8.55484 -19.49978,5.19336 -22.18417,23.91956 -22.96866,40.39908 -2.20948,4.54202 3.41484,21.77938 -5.04618,20.88485 z"
     id="path32" />
</svg>
