<?xml version="1.0" encoding="UTF-8" standalone="no"?>
<svg
   xmlns:dc="http://purl.org/dc/elements/1.1/"
   xmlns:cc="http://creativecommons.org/ns#"
   xmlns:rdf="http://www.w3.org/1999/02/22-rdf-syntax-ns#"
   xmlns:svg="http://www.w3.org/2000/svg"
   xmlns="http://www.w3.org/2000/svg"
   xmlns:sodipodi="http://sodipodi.sourceforge.net/DTD/sodipodi-0.dtd"
   xmlns:inkscape="http://www.inkscape.org/namespaces/inkscape"
   inkscape:version="1.0 (4035a4fb49, 2020-05-01)"
   sodipodi:docname="hebammenpraxis_square_thick-green-watermark.svg"
   id="SVGRoot"
   version="1.1"
   viewBox="0 0 512 512"
   height="512"
   width="512">
  <sodipodi:namedview
     inkscape:current-layer="SVGRoot"
     inkscape:cy="256"
     inkscape:cx="256"
     inkscape:zoom="1.4355469"
     showgrid="false"
     id="namedview6"
     inkscape:window-height="480"
     inkscape:window-width="640"
     inkscape:pageshadow="2"
     inkscape:pageopacity="0"
     guidetolerance="10"
     gridtolerance="10"
     objecttolerance="10"
     borderopacity="1"
     bordercolor="#666666"
     pagecolor="#ffffff" />
  <defs
     id="defs10" />
  <metadata
     id="metadata13">
    <rdf:RDF>
      <cc:Work
         rdf:about="">
        <dc:format>image/svg+xml</dc:format>
        <dc:type
           rdf:resource="http://purl.org/dc/dcmitype/StillImage" />
        <dc:title></dc:title>
      </cc:Work>
    </rdf:RDF>
  </metadata>
  <path
     id="path32"
     d="m 125.72161,501.49258 c 2.18228,-16.21839 12.50379,-32.90808 16.13426,-49.87106 9.56775,-32.58384 7.43505,-67.09469 8.29337,-100.68786 -1.42389,-32.19277 -3.97265,-65.18815 -17.07492,-95.15016 -7.04429,-22.98498 -19.00978,-44.13397 -27.9809,-66.23234 8.02546,-8.26446 14.16824,22.12786 19.91525,29.61515 11.81484,25.18222 21.63479,51.67 26.72445,78.91462 5.95761,43.86807 4.82233,88.1501 1.67292,132.2138 -4.68747,24.71967 -13.47671,48.87206 -24.79916,71.40633 0.44044,0.9996 -3.89924,-0.19516 -2.88527,-0.20848 z m 253.24889,-1.17109 c -10.93354,-15.76704 -22.11033,-32.09945 -28.54334,-50.34631 -8.27928,-24.15155 -17.54005,-48.88847 -15.57325,-74.97918 1.0163,-34.35956 1.03597,-69.63944 9.86778,-103.30706 4.80178,-28.59932 16.69771,-55.57886 27.9797,-82.1091 9.89816,-18.41487 7.91987,-15.54596 -10.18248,-33.40333 C 336.53538,131.97927 306.97372,109.73522 290.06449,77.724963 279.4559,60.561533 272.45137,41.348705 261.983,24.107662 237.5552,68.499294 200.55799,104.07811 164.44893,138.97915 c -27.27873,22.16733 -54.74489,44.55261 -85.069004,62.36778 -0.07709,-11.91674 26.409404,-19.76439 36.101984,-30.39948 48.79484,-34.60413 91.33751,-77.510137 127.54542,-125.042975 8.06521,-10.827942 14.2567,-24.333588 19.7346,-34.410024 4.51062,2.822721 7.24196,22.367497 15.32227,30.838582 14.07652,28.697131 30.4901,57.176807 55.15998,78.119707 22.75619,22.24581 47.09187,43.15014 72.86862,61.80096 8.41008,4.35644 42.97427,28.55872 16.98453,16.51619 -13.13266,-4.77006 -26.627,-17.91594 -37.20348,-21.52945 -14.46419,24.14755 -23.11415,51.09413 -32.00214,77.65434 -5.3371,27.73213 -12.66065,55.21561 -11.75974,83.7705 -1.44943,30.40408 -4.23559,62.04782 7.61889,90.90468 5.01005,18.44398 12.73006,35.9758 23.47618,51.79617 -0.87576,4.62013 20.15239,22.82115 5.74346,18.95536 z M 280.058,465.63091 c 1.13732,-15.59293 11.8048,-32.94685 14.83989,-49.81465 5.19936,-21.96833 4.28606,-45.48958 -6.0707,-65.86352 -9.65562,-20.44304 -19.00387,-42.1989 -14.95019,-65.43794 0.11872,-20.94657 7.84124,-40.52992 16.5379,-59.17445 9.68604,-26.31691 10.10977,-54.79148 14.15523,-82.22455 1.20353,-23.19362 9.31466,10.5881 2.62601,18.78287 -1.85949,30.07968 -7.26284,60.4055 -21.61886,87.18934 -6.99605,26.69451 -11.60171,56.55991 1.07627,82.37962 10.15737,21.54099 20.99991,44.7318 16.20235,69.19352 -2.90234,22.37045 -10.46477,44.23397 -19.86424,64.61588 l -1.25295,1.13366 -1.68208,-0.77978 z m -61.42332,-11.5267 c -2.67013,-16.64461 -1.16063,-35.76392 4.35805,-52.37193 7.14455,-17.19288 -26.07941,-13.86929 -32.51772,-28.60924 -21.43924,-25.71207 -19.43368,-64.49842 -3.02803,-92.37407 9.89581,-19.7535 24.15051,-36.83807 37.00907,-54.64063 -16.66263,16.77963 -40.66394,-2.84922 -27.05597,-22.47875 14.76312,-26.80186 36.87674,-49.3144 60.4288,-68.30977 8.98536,8.01247 -19.6479,23.33713 -25.28906,33.44488 -13.09861,14.62358 -30.13804,30.80858 -29.41251,51.7297 8.01045,17.08817 30.83345,-16.80559 38.79001,-6.25945 -17.65258,26.09451 -41.60528,49.52631 -49.43551,81.05259 -6.8147,27.33516 -5.20501,61.99813 18.55179,80.7872 8.79423,13.39284 30.0275,0.73418 35.58298,9.55816 -19.47686,5.80244 -22.15809,26.72485 -22.94166,45.13709 -2.20688,5.0747 3.41083,24.33366 -5.04024,23.33422 z"
     style="fill:#000000;fill-opacity:1;stroke:#000000;stroke-width:7.78419;stroke-dasharray:none;stroke-opacity:1" />
  <path
     id="path831"
     d="m 125.01527,505.06778 c -3.0574,-1.23928 -3.35023,-2.37125 -2.08483,-8.05899 1.39733,-6.28075 3.66669,-12.98407 9.31034,-27.50131 6.37017,-16.38607 10.20649,-32.73687 12.42145,-52.94149 1.78899,-16.31907 1.79476,-79.0814 0.009,-95.78232 -2.47455,-23.14008 -6.16052,-40.62949 -11.6182,-55.12666 -1.56684,-4.16197 -4.07013,-11.03509 -5.56287,-15.27361 -3.26755,-9.2779 -6.85275,-17.73806 -15.27911,-36.05472 -3.49355,-7.59406 -7.16312,-15.74426 -8.1546,-18.11157 -0.99148,-2.3673 -1.92272,-4.43104 -2.06943,-4.58608 -0.14671,-0.15505 -2.543149,1.23247 -5.325427,3.08337 -2.782313,1.85091 -8.585253,5.49572 -12.895457,8.09958 l -7.836734,4.73428 v -4.53657 c 0,-3.12963 0.423055,-5.36583 1.364107,-7.21045 2.135868,-4.18665 8.772335,-9.64469 19.552847,-16.08088 5.452824,-3.25545 11.205784,-7.04263 12.784344,-8.41595 1.57857,-1.37332 5.37789,-4.32894 8.44292,-6.56802 40.59067,-29.65254 78.29118,-66.056937 112.16812,-108.3119 11.30627,-14.102384 15.22623,-19.908079 21.88466,-32.412472 2.85011,-5.352461 6.179,-11.553689 7.39753,-13.780509 l 2.2155,-4.0487622 3.39975,3.352164 c 2.95384,2.9124972 3.80092,4.4485472 6.45838,11.7113482 3.49819,9.560456 4.81412,12.402549 8.22466,17.763265 1.34063,2.107211 5.34354,9.340753 8.89535,16.074539 15.47272,29.334316 26.2768,43.601457 49.50647,65.374867 31.72178,29.73315 54.23847,48.34583 74.8591,61.8798 11.46176,7.52272 21.24276,14.92953 22.28382,16.87476 1.6601,3.10192 -0.17458,6.28311 -3.62366,6.28311 -4.31096,0 -19.77434,-7.68376 -30.15403,-14.98354 -2.29878,-1.61667 -6.35427,-4.2683 -9.01219,-5.89251 -5.84449,-3.57146 -4.89474,-4.37574 -11.90174,10.07877 -6.28261,12.96018 -11.22893,25.44308 -18.00276,45.43312 -4.3314,12.78228 -5.91837,18.79033 -9.108,34.48164 -6.71916,33.05478 -7.44873,39.81795 -8.73777,80.99953 -0.92936,29.69082 0.15335,46.08186 3.93421,59.55918 2.5526,9.09905 10.33293,31.58499 13.24284,38.27313 3.39155,7.79515 8.67673,17.66433 12.49977,23.34121 1.29601,1.92447 2.35638,3.93739 2.35638,4.47316 0,0.53576 1.99642,3.67464 4.43649,6.97528 2.44006,3.30064 4.79108,6.68587 5.22449,7.52272 1.97526,3.81401 -0.0536,8.57912 -3.65281,8.57912 -4.9798,0 -5.96181,-0.68287 -10.40655,-7.23658 -15.87494,-23.40741 -21.88954,-35.20869 -29.32922,-57.54709 -5.66278,-17.00307 -8.61749,-27.79363 -10.58637,-38.66122 -2.74985,-15.17835 -0.44886,-78.0291 3.88872,-106.21921 1.7936,-11.65669 7.68501,-38.28529 10.78897,-48.76512 4.42969,-14.95585 15.71833,-43.71457 23.75763,-60.52445 2.08387,-4.35731 3.78886,-8.85473 3.78886,-9.99426 0,-2.77925 -4.86155,-7.78145 -26.47075,-27.2366 -45.48565,-40.95156 -52.6118,-50.000411 -75.66661,-96.082132 -5.51082,-11.014966 -10.25997,-20.027211 -10.55368,-20.027211 -0.29372,0 -1.92333,2.272653 -3.62137,5.050341 -15.05346,24.624632 -33.48887,46.624628 -67.89228,81.019572 -20.41192,20.4069 -25.01545,24.6121 -40.44837,36.94856 -9.57823,7.65646 -22.19538,17.47376 -28.0381,21.81623 -5.84272,4.34247 -10.62313,8.12091 -10.62313,8.39653 0,0.27563 0.6676,1.09829 1.48355,1.82815 2.52711,2.26045 4.73012,6.31085 8.6138,15.83713 2.05708,5.04583 5.14475,11.99546 6.86147,15.44362 11.9957,24.09426 24.419,61.84494 27.25671,82.82496 4.2198,31.19834 4.91779,79.98792 1.7461,122.05404 -1.40177,18.5917 -9.02532,43.94747 -21.33931,70.97406 -2.44388,5.36381 -4.96848,10.14422 -5.61023,10.62313 -1.3153,0.98157 -3.35233,1.05924 -5.4526,0.20792 z"
     style="fill:#869948;stroke:#000000;stroke-width:2.0898;stroke-linecap:round;stroke-linejoin:bevel;fill-opacity:1" />
  <path
     id="path833"
     d="m 214.66405,451.08831 c -1.88916,-15.37236 -0.38896,-32.70613 4.1246,-47.65693 2.62035,-8.67971 2.05518,-9.50129 -9.68817,-14.08356 -14.79962,-5.77484 -16.86246,-7.20182 -22.88246,-15.82898 -11.23067,-16.09447 -15.43911,-30.49505 -14.67574,-50.21785 0.39414,-10.18292 1.48961,-16.19638 4.80603,-26.38212 4.55134,-13.97859 17.79936,-36.41668 34.48675,-58.41002 l 1.64343,-2.16596 -3.44778,-0.40834 c -5.20231,-0.61615 -10.08607,-3.03179 -13.49292,-6.67399 -4.31966,-4.61807 -5.62502,-8.45609 -5.22518,-15.36309 0.30957,-5.34766 0.49727,-5.86032 5.04127,-13.7695 12.41946,-21.61706 31.00882,-43.03258 54.23917,-62.48519 l 8.22162,-6.88461 2.39426,2.32061 c 2.94016,2.84971 3.60048,5.79731 2.10208,9.38347 -1.72645,4.13198 -5.08994,7.79977 -15.32954,16.71643 -5.19273,4.52184 -9.44133,8.41836 -9.44133,8.65894 0,0.24057 -3.47148,4.34532 -7.71439,9.12166 -17.29384,19.46806 -23.55525,30.78452 -22.80364,41.21385 l 0.21599,2.99694 3.21403,-0.0378 c 2.75728,-0.0325 4.39073,-0.77321 11.49388,-5.21242 13.22584,-8.26565 17.50704,-9.06454 22.21915,-4.14616 1.8149,1.89435 1.9007,2.21083 1.03693,3.8248 -0.51792,0.96776 -6.39868,9.0434 -13.06834,17.94586 -19.81579,26.44951 -25.01405,34.37217 -30.34984,46.25612 -7.0012,15.59319 -10.1654,33.8509 -8.79286,50.73561 0.83741,10.30163 2.73864,17.40284 6.94274,25.93149 2.98237,6.05021 4.48275,8.11869 9.95939,13.7305 3.61923,3.70855 7.57385,7.07756 9.01424,7.67939 1.92978,0.80632 5.20627,1.0725 13.2117,1.07331 12.33491,0.001 14.0407,0.53133 17.83608,5.54254 l 2.35206,3.10552 -4.63357,1.56303 c -11.29681,3.81071 -17.21327,12.54312 -19.14308,28.25423 -1.61679,13.1628 -1.93678,17.94295 -1.62183,24.22748 0.1925,3.84112 0.003,7.83849 -0.45274,9.52738 -1.08107,4.01022 -4.14657,6.49439 -8.01415,6.49439 h -2.96958 z"
     style="fill:#869948;fill-opacity:1;stroke:#000000;stroke-width:2.0898;stroke-linecap:round;stroke-linejoin:bevel" />
  <path
     id="path835"
     d="m 278.81361,468.98825 c -1.92275,-0.95692 -2.26321,-1.50137 -2.25907,-3.61259 0.008,-4.2138 2.55715,-13.42443 7.37047,-26.63394 5.50167,-15.09858 6.12355,-17.13121 7.93544,-25.93716 3.34199,-16.24233 3.25295,-31.27775 -0.2674,-45.15541 -0.92731,-3.65557 -3.90314,-11.51507 -6.69003,-17.66916 -14.16598,-31.2817 -16.57103,-42.28357 -14.68163,-67.16094 1.39679,-18.39115 4.62984,-30.64295 13.53331,-51.28514 8.42409,-19.53077 10.00014,-27.25426 15.76102,-77.23731 2.29754,-19.93416 3.05538,-22.63946 6.34207,-22.63946 3.61681,0 5.64935,3.24954 6.83701,10.93072 1.05884,6.84799 0.97249,11.06394 -0.31872,15.56237 -1.21682,4.23926 -1.80551,8.17642 -3.43379,22.96542 -2.57061,23.34781 -9.36742,48.15003 -17.74063,64.73726 -5.84792,11.58467 -10.28933,42.31499 -8.41336,58.2124 1.40796,11.93134 3.03214,17.17898 9.89543,31.97147 8.8869,19.15399 13.27473,32.98808 14.42477,45.47885 1.67492,18.19167 -4.95494,47.87016 -17.08886,76.49798 -5.19605,12.25916 -6.35144,13.3907 -11.20603,10.97464 z"
     style="fill:#869948;fill-opacity:1;stroke:#000000;stroke-width:2.0898;stroke-linecap:round;stroke-linejoin:bevel" />
</svg>
